<svg width="65" height="72" viewBox="0 0 65 72" fill="none" xmlns="http://www.w3.org/2000/svg">
<path fill-rule="evenodd" clip-rule="evenodd" d="M49.8421 39.1225C50.7791 28.6839 41.6835 27.2395 34.626 32.655C32.9397 34.0568 31.223 35.4369 29.9597 37.2701C29.5722 38.081 28.4539 37.9265 28.1117 37.1593C27.9777 36.8524 27.7664 36.6462 27.4311 36.5733C24.8167 36.0519 22.6682 33.8525 19.8785 34.2611C15.2619 34.5066 9.36121 36.8469 10.1149 42.409C10.9522 53.7738 27.7607 61.2141 35.5747 68.3683C37.4269 69.8649 37.3099 70.1436 38.4111 67.7536C39.3499 65.7158 40.1515 63.619 41.2086 61.6305C44.5634 54.4806 50.0923 47.3228 49.8421 39.1225ZM52.823 39.0022C53.1169 47.2219 48.0398 54.1268 44.4125 61.1064C42.2435 64.5153 41.7638 68.9853 38.8013 71.8328C38.669 71.9543 38.2683 72.0302 38.2459 71.9886C37.9254 71.3981 37.3677 71.9322 36.9694 71.6921C32.4838 69.0256 28.4017 65.5827 24.1447 62.5155C17.4118 57.4769 8.90781 52.6463 7.31098 43.6459C5.19249 35.2527 14.9784 29.9047 22.186 31.9352C24.3 32.0929 27.2244 35.3738 28.4866 34.9415C35.0628 24.0585 54.1448 22.84 52.823 39.0022Z" fill="currentColor" />
<path fill-rule="evenodd" clip-rule="evenodd" d="M9.77631 14.1779C9.76813 14.1783 9.75995 14.1788 9.75164 14.1794C9.97797 17.6639 10.8356 21.0857 11.0265 24.5844C11.0564 25.2618 11.1518 25.7953 11.9972 25.4916C18.971 23.5519 25.7362 20.6665 33.0247 20.0945C33.805 19.8887 35.7198 19.8992 35.4108 18.7178C34.8284 16.7777 34.0558 14.8665 33.6657 12.8763C33.1362 11.3712 33.8669 8.54246 32.6405 7.63636C30.6445 10.0282 29.4532 13.029 28.5069 15.997C27.5617 17.3885 25.6313 15.4588 24.8657 14.5801C23.893 14.0424 21.9998 7.30687 21.2902 9.86287C20.1436 11.6916 21.7035 18.703 18.4549 17.6817C15.807 16.5447 13.5503 14.6981 11.1332 13.1602C9.9666 12.1403 9.54513 12.9509 9.77631 14.1779ZM21.0421 2.788C22.2522 2.64703 24.3368 3.42367 23.5657 4.94369C23.0903 5.68983 22.0556 6.26105 23.1461 7.01399C28.9492 16.5968 25.6475 11.5746 31.3503 5.79324C32.3871 4.90834 32.7235 4.62419 31.6991 3.4823C30.147 -0.603554 34.5163 -0.025959 36.2282 2.44604C36.9748 3.34466 36.7531 4.30302 35.9555 5.08992C34.7007 5.67043 37.7859 14.8737 38.1913 16.4464C38.5951 17.7934 40.229 21.7555 37.8964 21.7964C31.7094 21.4234 25.3885 23.7297 19.4144 25.3609C16.9645 25.796 9.09371 29.7403 9.17632 25.2894C8.91354 22.3167 8.22679 19.4116 7.63331 16.5015C7.07005 14.8303 8.05645 12.1559 6.53063 11.0669C5.04916 10.6372 5.17237 8.98865 5.10986 7.73921C5.31693 5.07606 8.78824 6.33687 9.30549 8.19801C9.41249 9.4968 9.87402 9.80299 11.0263 10.3005C12.8016 11.5 14.5624 12.7212 16.3238 13.9412C16.9938 14.41 18.1798 15.7213 18.2717 14.0768C18.5579 11.7387 18.8454 9.40019 19.9445 7.261C20.2148 6.76976 19.6977 6.41131 19.4223 6.0688C18.265 4.76709 19.1422 2.35567 21.0419 2.75806C21.0421 2.76817 21.0421 2.77802 21.0421 2.788Z" fill="currentColor" />
<path fill-rule="evenodd" clip-rule="evenodd" d="M13.0706 61.5708C12.2012 63.5428 11.8203 65.8077 10.5109 67.5478C9.19407 68.5557 8.68423 66.6093 9.00823 65.6128C9.43127 64.0161 10.7358 57.6335 12.5816 57.8245C14.8559 58.0614 12.9124 60.4158 13.0706 61.5708Z" fill="currentColor" />
<path fill-rule="evenodd" clip-rule="evenodd" d="M6.49855 50.4384C5.59672 52.3388 3.8518 53.9269 2.60284 55.64C2.16355 56.2752 1.69276 55.9441 1.1488 55.5686C-1.28903 54.5576 6.29761 45.6761 6.49855 50.4384Z" fill="currentColor" />
<path fill-rule="evenodd" clip-rule="evenodd" d="M57.7896 42.5558C59.2395 42.4247 65.9806 44.8843 63.8991 46.4762C61.5284 45.5499 58.9762 45.5493 56.5049 45.1884C55.1645 44.9678 55.1515 44.8917 55.5508 43.6072C55.7918 42.6415 57.1508 42.8007 57.7896 42.5558Z" fill="currentColor" />
<path fill-rule="evenodd" clip-rule="evenodd" d="M24.3995 67.8391C23.4798 69.4071 23.2517 71.3934 22.6772 71.2395C18.3307 64.6927 24.9713 61.9554 24.3995 67.8391Z" fill="currentColor" />
<path fill-rule="evenodd" clip-rule="evenodd" d="M51.9576 68.0797C51.9168 68.8753 51.0767 69.1962 50.4257 68.9228C42.0957 65.3652 46.4809 60.2652 51.9576 68.0797Z" fill="currentColor" />
<path fill-rule="evenodd" clip-rule="evenodd" d="M56.6962 56.7943C55.0394 56.3012 51.8147 55.7268 51.1714 53.8439C51.5021 51.3496 54.3171 53.4052 55.4717 54.1295C56.4149 54.7555 59.623 56.5112 56.6962 56.7943Z" fill="currentColor" />
</svg>
