<?xml version="1.0" encoding="UTF-8"?>
<svg width="80px" height="80px" viewBox="0 0 80 80" version="1.1" xmlns="http://www.w3.org/2000/svg" xmlns:xlink="http://www.w3.org/1999/xlink">
    <title>insta</title>
    <g id="Page-1" stroke="none" stroke-width="1" fill="none" fill-rule="evenodd">
        <g id="main-copy-2" transform="translate(-1140.000000, -2020.000000)" fill="#EC7C1A" fill-rule="nonzero">
            <g id="social" transform="translate(1140.000000, 1810.000000)">
                <g id="icons" transform="translate(0.000000, 210.000000)">
                    <path d="M57.922419,-2.84217094e-14 C70.0964143,-2.84217094e-14 80,9.90405887 80,22.0771078 L80,22.0771078 L80,57.9228922 C80,70.0959411 70.0964143,80 57.922419,80 L57.922419,80 L22.0766346,80 C9.90358567,80 4.05009359e-13,70.0964143 4.05009359e-13,57.9228922 L4.05009359e-13,57.9228922 L4.05009359e-13,22.0771078 C4.05009359e-13,9.90405887 9.90358567,-2.84217094e-14 22.0766346,-2.84217094e-14 L22.0766346,-2.84217094e-14 Z M57.922419,7.09798772 L22.0766346,7.09798772 C13.8174161,7.09798772 7.09798772,13.8178893 7.09798772,22.0771078 L7.09798772,22.0771078 L7.09798772,57.9228922 C7.09798772,66.1825839 13.8174161,72.9020123 22.0766346,72.9020123 L22.0766346,72.9020123 L57.9228922,72.9020123 C66.1825839,72.9020123 72.9024855,66.1825839 72.9024855,57.9228922 L72.9024855,57.9228922 L72.9024855,22.0771078 C72.9024855,13.8178893 66.1821107,7.09798772 57.922419,7.09798772 L57.922419,7.09798772 Z M40,19.3869705 C51.3667175,19.3869705 60.6139759,28.6342289 60.6139759,40.0009464 C60.6139759,51.3671907 51.3667175,60.6139759 40,60.6139759 C28.6332825,60.6139759 19.3860241,51.3671907 19.3860241,40.0009464 C19.3860241,28.6342289 28.6332825,19.3869705 40,19.3869705 Z M40,26.484485 C32.5471129,26.484485 26.4840118,32.5475861 26.4840118,40.0004732 C26.4840118,47.4528871 32.5475861,53.515515 40,53.515515 C47.4524139,53.515515 53.5159882,47.4528871 53.5159882,40.0004732 C53.5159882,32.5475861 47.4528871,26.484485 40,26.484485 Z M61.4785108,13.3683501 C62.8507885,13.3683501 64.1946741,13.9219931 65.1600005,14.8920514 C66.1300588,15.8573778 66.6837018,17.2012634 66.6837018,18.5735411 C66.6837018,19.9410867 66.1300588,21.2849724 65.1600005,22.2550307 C64.1899422,23.220357 62.8507885,23.7787321 61.4785108,23.7787321 C60.1109652,23.7787321 58.7670795,23.220357 57.8017532,22.2550307 C56.8316949,21.2849724 56.2733198,19.9415599 56.2733198,18.5735411 C56.2733198,17.2012634 56.8312217,15.8573778 57.8017532,14.8920514 C58.7675527,13.9219931 60.1109652,13.3683501 61.4785108,13.3683501 Z" id="insta"></path>
                </g>
            </g>
        </g>
    </g>
</svg>