<?xml version="1.0" encoding="UTF-8"?>
<svg width="80px" height="80px" viewBox="0 0 80 80" version="1.1" xmlns="http://www.w3.org/2000/svg" xmlns:xlink="http://www.w3.org/1999/xlink">
    <title>linkedin</title>
    <g id="Page-1" stroke="none" stroke-width="1" fill="none" fill-rule="evenodd">
        <g id="main-copy-2" transform="translate(-1300.000000, -2020.000000)" fill="#EC7C1A" fill-rule="nonzero">
            <g id="social" transform="translate(1140.000000, 1810.000000)">
                <g id="icons" transform="translate(0.000000, 210.000000)">
                    <path d="M230.625,7.10542736e-15 C235.703982,7.10542736e-15 239.852148,4.05906137 239.996134,9.10381964 L240,9.375 L240,70.625 C240,75.7039817 235.940939,79.852148 230.89618,79.9961345 L230.625,80 L169.375,80 C164.296018,80 160.147852,75.9409386 160.003866,70.8961804 L160,70.625 L160,9.375 C160,4.29601829 164.059061,0.147851981 169.10382,0.00386553016 L169.375,7.10542736e-15 L230.625,7.10542736e-15 Z M230.625,6.25 L169.375,6.25 C167.711392,6.25 166.34707,7.55695643 166.254957,9.19794584 L166.25,9.375 L166.25,70.625 C166.25,72.2886079 167.556956,73.6529302 169.197946,73.7450432 L169.375,73.75 L230.625,73.75 C232.288608,73.75 233.65293,72.4430436 233.745043,70.8020542 L233.75,70.625 L233.75,9.375 C233.75,7.6519775 232.348023,6.25 230.625,6.25 Z M185.001221,30.78125 L185.001221,66.09375 L174.063721,66.09375 L174.063721,30.78125 L185.001221,30.78125 Z M212.861328,30.15625 C223.934937,30.15625 225.9375,37.1868897 225.9375,46.6662597 L225.9375,46.6662597 L225.9375,66.09375 L215.15625,66.09375 L215.156074,48.6475532 C215.148678,44.5981585 214.880798,39.5208741 209.360352,39.5208741 C203.668823,39.5208741 202.5,43.9691163 202.5,48.5607909 L202.5,48.5607909 L202.5,66.09375 L191.875,66.09375 L191.875,30.78125 L202.5,30.78125 L202.5,35.5847169 L202.510376,35.5847169 C203.968506,32.8173828 207.540283,30.15625 212.861328,30.15625 Z M179.689941,13.125 C183.223877,13.125 186.092529,15.9948731 186.092529,19.5306397 C186.092529,23.0676269 183.223877,25.9375 179.689941,25.9375 C176.142578,25.9375 173.28125,23.0676269 173.28125,19.5306397 C173.28125,15.9948731 176.142578,13.125 179.689941,13.125 Z" id="linkedin"></path>
                </g>
            </g>
        </g>
    </g>
</svg>