<?xml version="1.0" encoding="UTF-8"?>
<svg width="80px" height="80px" viewBox="0 0 80 80" version="1.1" xmlns="http://www.w3.org/2000/svg" xmlns:xlink="http://www.w3.org/1999/xlink">
    <title>twitter</title>
    <g id="twitter" stroke="none" stroke-width="1" fill="none" fill-rule="evenodd">
        <path d="M79.9816226,29.6806604 C79.8592793,28.5911097 79.1435007,27.7023301 78.1880355,27.4531151 L70.1708774,25.3625068 C69.3710366,20.7288557 67.7943237,16.939038 65.4765197,14.0839953 C62.1990318,10.0468863 57.5684238,8 51.7131329,8 C46.2523717,8 42.1491055,9.9571689 39.5167715,13.8172915 C36.1941274,18.6898393 36.1803775,25.4001077 36.6314696,29.7245572 C29.8644632,27.4870433 19.0718467,22.6912712 16.9713857,16.2547022 C16.6421681,15.2459496 15.797015,14.5637124 14.8377998,14.5325824 C13.8784283,14.4995286 12.9996815,15.1279003 12.6187454,16.1135677 C9.63844389,23.8271672 9.69172495,32.0892146 12.7734324,40.0065583 C13.1981183,41.097683 13.6529604,42.1116822 14.1129587,43.0405111 L3.04299941,39.1679715 C2.28893968,38.9040659 1.4670677,39.0833258 0.85644495,39.6445406 C0.245822196,40.2057554 -0.0710516381,41.0733736 0.0134793009,41.9525344 C0.0431666917,42.261561 0.791913937,49.6040487 5.19346024,56.981164 C9.28141395,63.8327417 17.3787279,72 32.7392964,72 C40.5720801,72 47.6109604,69.7675578 53.6604694,65.3649334 C58.2071715,62.0558821 62.126532,57.584177 65.3096453,52.0741633 C67.9440106,47.5141399 69.6852542,42.397099 70.3821267,37.1931389 L78.7364709,32.3359812 C79.607249,31.8298561 80.1039659,30.7702111 79.9816226,29.6806604 Z M67.2124921,33.1058873 C66.5211167,33.5141331 66.0552842,34.2884412 65.9709967,35.1690026 C65.5000418,40.0921333 63.9499576,44.9822584 61.4886984,49.3104057 C56.8994495,57.3803653 48.2389402,67 33.0421856,67 C22.518036,67 14.6479361,62.750219 9.65106449,54.3685594 C7.76755543,51.2093754 6.64946447,48.0111849 6,45.5818309 L19.7480328,50.46772 C20.7678659,50.8306052 21.8746254,50.3563481 22.4309544,49.3185247 C22.9871282,48.2805248 22.8503743,46.9451214 22.099237,46.080445 C22.003618,45.9703087 13.6419181,36.1392263 15.931032,23.0490606 C18.5313735,26.194654 22.5447349,29.0631414 27.931844,31.6186934 C33.7784212,34.392047 39.1093386,35.7743996 39.3333294,35.8319388 C40.1296374,36.0361499 40.9608712,35.749513 41.5258928,35.0796933 C42.0906041,34.4098736 42.3054365,33.4507694 42.092622,32.5548525 C42.068562,32.4533646 39.7288445,22.3538248 43.4842207,16.7774655 C45.1960501,14.2356806 47.9460292,13 51.8914017,13 C59.9376828,13 64.491385,17.6613804 65.8122007,27.2487155 C65.8347085,27.4126845 65.8545774,27.5766535 65.8746015,27.7407991 L65.8778612,27.7676272 C66.0099583,28.8532823 66.7170115,29.7341967 67.655972,29.982886 L71,30.8687424 L67.2124921,33.1058873 Z" fill="#EC7C1A" fill-rule="nonzero"></path>
    </g>
</svg>