<svg width="101" height="100" viewBox="0 0 101 100" fill="none" xmlns="http://www.w3.org/2000/svg">
<path fill-rule="evenodd" clip-rule="evenodd" d="M95.161 50C95.161 74.7576 77.6772 96.1207 52.9196 96.1207C28.162 96.1207 5.07475 78.6369 5.07475 53.8793C5.07475 29.1217 28.162 3.87931 52.9196 3.87931C77.6772 3.87931 95.161 25.2424 95.161 50ZM100.333 50C100.333 77.6142 77.9476 100 50.3334 100C35.8615 100 24.1188 97.327 14.9885 87.5C6.69703 78.5758 0.333374 63.1424 0.333374 50C0.333374 22.3858 22.7191 0 50.3334 0C77.9476 0 100.333 22.3858 100.333 50ZM50.3334 54.7414C52.7139 54.7414 55.1363 52.1552 54.6437 50.431C53.7817 47.4138 52.7139 46.1207 50.3334 46.1207C47.9528 46.1207 45.592 47.6195 45.592 50C45.592 52.3805 46.8851 54.7414 50.3334 54.7414ZM93.4003 50.431C93.6798 51.4655 92.3054 53.0172 90.9547 53.0172C88.9981 53.0172 88.2644 51.6007 88.2644 50.1724C88.2644 48.7441 89.6039 47.8448 90.9547 47.8448C92.3054 47.8448 92.9112 48.6207 93.4003 50.431ZM84.9202 33.1897C86.2709 33.1897 87.6453 31.6379 87.3658 30.6034C86.8767 28.7931 86.2709 28.0172 84.9202 28.0172C83.5695 28.0172 82.2299 28.9165 82.2299 30.3448C82.2299 31.7731 82.9636 33.1897 84.9202 33.1897ZM72.7107 15.0862C72.9902 16.1207 71.6157 17.6724 70.265 17.6724C68.3085 17.6724 67.5748 16.2559 67.5748 14.8276C67.5748 13.3993 68.9143 12.5 70.265 12.5C71.6157 12.5 72.2215 13.2759 72.7107 15.0862ZM50.4374 10.7759C51.7881 10.7759 53.1626 9.22414 52.8831 8.18966C52.3939 6.37931 51.7881 5.60345 50.4374 5.60345C49.0867 5.60345 47.7472 6.50271 47.7472 7.93103C47.7472 9.35936 48.4809 10.7759 50.4374 10.7759ZM33.0555 15.0862C33.335 16.1207 31.9605 17.6724 30.6098 17.6724C28.6533 17.6724 27.9196 16.2559 27.9196 14.8276C27.9196 13.3993 29.2591 12.5 30.6098 12.5C31.9605 12.5 32.5664 13.2759 33.0555 15.0862ZM17.6788 33.1897C19.0295 33.1897 20.404 31.6379 20.1245 30.6034C19.6353 28.7931 19.0295 28.0172 17.6788 28.0172C16.3281 28.0172 14.9885 28.9165 14.9885 30.3448C14.9885 31.7731 15.7222 33.1897 17.6788 33.1897ZM17.5382 71.1207C17.8177 72.1552 16.4433 73.7069 15.0926 73.7069C13.136 73.7069 12.4023 72.2904 12.4023 70.8621C12.4023 69.4337 13.7419 68.5345 15.0926 68.5345C16.4433 68.5345 17.0491 69.3103 17.5382 71.1207ZM30.6098 88.3621C31.9605 88.3621 33.335 86.8103 33.0555 85.7759C32.5664 83.9655 31.9605 83.1897 30.6098 83.1897C29.2591 83.1897 27.9196 84.0889 27.9196 85.5172C27.9196 86.9456 28.6533 88.3621 30.6098 88.3621ZM52.8831 90.9483C53.1626 91.9828 51.7881 93.5345 50.4374 93.5345C48.4809 93.5345 47.7472 92.118 47.7472 90.6897C47.7472 89.2613 49.0867 88.3621 50.4374 88.3621C51.7881 88.3621 52.3939 89.1379 52.8831 90.9483ZM72.8512 88.3621C74.2019 88.3621 75.5764 86.8103 75.2969 85.7759C74.8077 83.9655 74.2019 83.1897 72.8512 83.1897C71.5005 83.1897 70.161 84.0889 70.161 85.5172C70.161 86.9456 70.8947 88.3621 72.8512 88.3621ZM87.3658 71.1207C87.6453 72.1552 86.2709 73.7069 84.9202 73.7069C82.9636 73.7069 82.2299 72.2904 82.2299 70.8621C82.2299 69.4337 83.5695 68.5345 84.9202 68.5345C86.2709 68.5345 86.8767 69.3103 87.3658 71.1207ZM9.92016 53.0172C11.2709 53.0172 12.6453 51.4655 12.3658 50.431C11.8767 48.6207 11.2709 47.8448 9.92016 47.8448C8.56946 47.8448 7.22993 48.7441 7.22993 50.1724C7.22993 51.6007 7.96363 53.0172 9.92016 53.0172ZM48.6092 15.2018C48.6092 13.7195 51.559 14.0901 51.559 15.2018C51.559 15.343 51.5856 15.7848 51.6265 16.4644V16.4644C51.7504 18.5227 52.0056 22.7614 52.0506 27.4303C52.1078 33.3628 51.7991 40.0546 51.559 41.1408C51.0673 43.364 48.6092 42.9935 48.6092 41.1408C48.6092 40.8931 48.6666 40.1536 48.7443 39.153L48.7443 39.1527C48.9489 36.5155 49.2942 32.0648 49.1009 30.0242C48.6092 24.8364 48.6092 15.9637 48.6092 15.2018ZM58.3195 49.1758C57.3101 49.1758 56.4813 51.9498 58.3195 51.9498C58.8525 51.9498 59.4681 51.9887 60.164 52.0326C61.8684 52.1401 64.0538 52.278 66.6821 51.9497C68.3171 51.7455 73.587 51.8738 75.837 51.9286C76.3509 51.9411 76.7073 51.9498 76.8268 51.9498C78.1487 51.9498 78.4131 49.6381 76.8268 49.1758C76.0518 48.9499 71.2772 48.6596 67.0444 48.7134C64.1327 48.7504 61.7162 48.9384 60.1149 49.063C59.2793 49.128 58.6657 49.1758 58.3195 49.1758Z" fill="currentColor"/>
</svg>
