<svg width="70" height="72" viewBox="0 0 70 72" fill="none" xmlns="http://www.w3.org/2000/svg">
<path fill-rule="evenodd" clip-rule="evenodd" d="M28.1318 48.7437L28.1318 48.7413C27.4777 48.6992 26.1868 49.0926 26.4984 47.7448C26.8608 45.2406 26.6342 42.7228 26.5981 40.2108C26.4895 36.421 26.0191 32.6634 26.0016 28.8655C26.1054 28.1556 25.4365 26.5978 26.2589 26.4549C27.0517 26.664 28.538 25.9344 28.9285 26.9939C29.3192 29.7224 29.1786 32.5223 29.3159 35.2818C29.4328 39.4142 29.5538 43.5463 29.6812 47.6781C29.9475 49.0401 28.8424 48.7364 28.1318 48.7437ZM58.0585 29.796L58.0597 29.7209C61.3465 29.7941 64.7263 29.1078 67.9641 29.9825C67.5103 32.9556 56.9221 34.1163 54.5865 33.9282C52.8178 33.7335 52.5866 36.1241 54.2763 36.5405C57.8252 37.4225 61.4455 37.5818 65.0105 38.329C71.4434 39.8146 64.551 41.5367 62.0995 41.7321C60.2685 42.73 51.632 40.5935 51.9742 43.4459C52.6251 45.6194 58.9152 45.2615 60.8876 46.1024C62.4044 46.6797 71.7938 47.5022 65.8348 49.273C55.3296 51.5384 44.6639 49.334 34.1025 49.0193C33.4067 49.0192 32.7097 49.0191 32.0151 48.9757C30.7862 48.8988 30.8465 48.8845 30.9327 47.4649C31.1534 43.9572 31.1853 40.4403 31.029 36.9282C31.1816 24.2617 28.1561 27.0736 36.6394 26.6528C41.3203 26.7329 39.3625 16.2067 41.1243 19.5569C42.5004 22.3648 43.5706 25.4751 45.3069 27.9725C49.0085 30.7463 53.8983 29.234 58.0585 29.796ZM61.3376 43.8887C63.7712 42.6997 66.6629 43.377 68.5998 40.8522C69.2376 39.3885 69.4989 38.9868 68.2805 37.8039C66.5044 36.0889 64.0795 36.2803 62.1046 35.4101C64.5553 33.8895 67.963 33.841 69.7232 30.6378C72.5385 25.3519 53.0036 27.4281 50.7061 26.893C47.5023 26.8451 46.7506 27.1722 45.0888 23.5626C42.7336 16.6499 38.5004 12.6371 37.4847 22.9985C37.1823 24.3275 36.967 24.4861 35.8613 24.3576C28.2434 23.3565 20.5802 23.1322 12.9264 23.1298C9.6139 22.988 6.30332 22.8813 2.99201 22.7057C2.29255 22.5474 1.49847 23.8287 2.3317 24.2917C8.2503 25.1701 14.3451 25.9408 20.319 26.0083C21.271 26.3368 24.663 25.5394 24.5934 27.15C25.4105 29.6607 21.1318 27.7789 20.0987 27.9851C18.6084 27.7773 17.1259 27.8424 15.6391 28.047C12.3462 28.5483 9.02559 28.5157 5.71464 28.625C4.65811 28.9208 1.69593 27.838 1.6306 29.6579C2.25294 31.233 8.9441 30.0524 10.691 30.4459C13.6786 30.5418 16.6355 29.6507 19.6171 29.9737C21.206 30.0433 22.8 30.2319 24.355 29.7003C24.516 29.6631 24.6489 29.7594 24.6508 29.9221C24.5169 30.9348 25.0676 33.0007 24.1933 33.4564C20.7637 33.045 17.3252 32.6102 13.8802 32.9969C11.3329 33.1132 8.78121 33.1933 6.23214 33.2614C5.08426 33.6312 0.300582 32.1766 0.689413 34.2789C0.944466 34.9672 1.85572 34.8216 2.37002 35.0645C5.41022 35.6942 8.51621 35.6538 11.5875 35.6336C15.7529 35.3669 19.9454 36.1008 24.0869 35.3847C25.1087 35.2805 24.5151 37.4034 24.6743 38.2124C24.6698 38.6425 24.5423 38.7359 24.1485 38.7318C21.2011 38.7011 18.2534 38.6262 15.3065 38.6555C11.1634 38.6979 7.02303 39.0477 2.8805 38.7919C2.19874 38.929 1.14869 38.4245 0.786781 39.3573C0.57772 39.9825 1.2206 40.0292 1.56252 40.0523C4.96089 40.4719 8.35205 40.8393 11.7736 40.8351C15.9446 40.9292 20.1325 41.4743 24.2934 40.8841C24.6138 40.8338 24.7467 40.9534 24.7545 41.325C24.598 42.1454 25.2023 44.01 24.3904 44.2313C22.1861 43.8789 19.9725 43.6578 17.7498 43.8103C16.7242 44.1779 0.595419 42.3202 3.2425 44.3224C3.77085 44.6655 4.33991 44.9125 4.943 44.8865C9.64547 45.0534 14.28 46.2797 18.9988 45.9989C19.9959 46.2901 24.9151 45.3801 24.8866 46.6137C24.9331 47.4752 25.3146 48.9341 24.1975 48.6773C17.411 48.5424 10.5969 48.9698 3.82706 48.3724C-4.53284 48.5262 7.40128 50.3564 9.36916 50.0351C25.7601 49.7521 42.0974 51.5016 58.4745 51.6602C61.3235 51.0855 68.2694 51.7239 69.1847 47.7468C69.196 45.455 62.9168 44.769 61.3376 43.8887Z" fill="currentColor" />
<path fill-rule="evenodd" clip-rule="evenodd" d="M40.6785 63.0875C39.6422 62.9712 38.5641 64.2374 39.6133 65.0017C40.5812 65.7089 41.8633 65.4505 42.9101 65.9646C44.0694 66.4988 42.58 70.2121 42.9434 71.5284C44.1654 73.6666 44.8523 67.8823 45.1204 67.1532C45.3347 65.947 49.5459 68.7254 48.0395 65.7292C47.2882 64.8949 45.4351 65.0067 45.6851 63.5878C45.565 62.5201 46.4259 60.4295 45.1898 59.9483C43.6553 59.6315 44.0603 61.9898 43.7512 62.9506C43.492 64.1142 41.5682 62.9388 40.6785 63.0875Z" fill="currentColor" />
<path fill-rule="evenodd" clip-rule="evenodd" d="M68.1572 59.5501C67.617 59.486 65.9096 60.3557 65.8057 59.2342C65.8626 58.3043 63.78 54.5989 63.1961 56.5781C64.7808 60.9298 64.9236 60.0777 60.6775 61.3239C60.1335 61.5136 59.9666 61.9849 59.9428 62.5056C60.1771 64.3247 62.6449 63.1071 63.7841 62.9777C64.986 62.4932 65.1344 63.325 65.3273 64.296C65.3597 64.7531 66.1551 65.8265 66.4698 65.0666C66.7378 63.4834 65.5882 62.3023 67.5495 61.6049C68.6652 61.0748 70.9924 59.2398 68.1572 59.5501Z" fill="currentColor" />
<path fill-rule="evenodd" clip-rule="evenodd" d="M45.1748 7.36449C44.6061 5.30265 46.1014 5.43723 47.5228 4.69742C50.4319 2.86668 46.5189 3.15511 45.1924 3.40935C43.6632 3.56559 44.2163 1.12483 43.0603 0.579316C41.6581 0.457495 42.636 2.4594 42.7309 3.20776C43.23 4.10723 37.3676 5.29752 39.4053 6.51277C40.5948 7.39674 41.8008 6.56576 43.0337 6.22138C44.2749 6.14663 43.7296 8.42179 44.5105 9.14235C45.5172 9.86895 45.1456 7.89041 45.2037 7.36415C45.194 7.36426 45.1845 7.36438 45.1748 7.36449Z" fill="currentColor" />
<path fill-rule="evenodd" clip-rule="evenodd" d="M8.18638 11.378C8.85681 13.1885 12.1999 12.9159 10.989 15.3232C10.8975 15.8391 10.0363 18.234 11.1035 17.8366C13.1249 14.9961 11.6287 14.105 15.2495 15.6616C15.4926 15.712 15.7727 15.7464 15.9183 15.4887C16.6819 13.716 12.7354 13.4588 13.7436 11.6456C15.5378 8.33021 12.5762 7.23245 12.0729 11.118C11.2572 12.6222 8.17876 8.1677 8.18638 11.378Z" fill="currentColor" />
</svg>
