<svg width="132" height="114" viewBox="0 0 132 114" fill="none" xmlns="http://www.w3.org/2000/svg">
<path fill-rule="evenodd" clip-rule="evenodd" d="M23.1343 85.2851C23.3368 86.6709 22.5389 92.3942 23.7642 92.6292C24.4171 92.8484 25.6578 93.2518 25.8829 92.3174C26.2092 90.9058 26.2764 89.2981 27.9 88.7893C30.1497 88.0396 29.5234 92.7529 29.943 94.0451C30.0684 95.5164 30.2504 97.2151 29.1805 98.3992C28.0181 99.6262 26.0673 99.209 24.5585 99.6706C23.9879 99.9217 24.4376 100.777 24.4005 101.266C24.6454 102.362 24.3327 103.427 24.2884 104.526C24.1715 107.341 24.493 110.15 24.3721 112.963C24.4637 113.511 23.7784 114.323 23.4905 113.455C23.4406 112.425 23.43 111.392 23.4016 110.36C23.2482 108.356 23.0942 106.262 23.2085 104.219C23.1133 103.778 23.2162 103.344 23.2886 102.917C23.4714 101.976 23.1618 101.05 23.2402 100.113C23.5107 98.2302 26.2351 98.7611 27.6233 98.2964C29.4852 97.9034 29.1218 95.4928 28.9872 94.064C28.6904 92.6052 28.7923 91.0959 28.4745 89.6473C28.4338 89.4892 28.3292 89.4353 28.1916 89.4957C26.4196 90.0304 27.3053 92.2657 26.2089 93.3374C25.1455 94.1372 23.1971 93.6499 22.4079 92.6098C21.5177 91.2948 22.1093 89.5444 21.9328 88.092C21.7312 86.1563 22.6186 80.2659 21.2803 79.2787C20.23 78.4072 19.1688 76.9953 17.6625 77.7502C16.7844 78.1136 16.0118 78.837 15.7664 79.7666C15.3377 81.267 14.8596 82.7772 14.9606 84.3597C15.2137 86.7787 15.426 89.1682 15.3558 91.6053C15.2229 92.2874 15.741 94.0889 14.9377 94.3053C14.2185 95.4901 12.8452 95.8662 11.5126 95.7343C10.0507 95.9284 9.41502 94.3513 9.08551 93.2038C8.83228 92.3449 8.34857 91.5842 7.97627 90.7734C7.6347 90.1578 6.8481 90.4525 6.6228 90.9539C6.20979 92.0379 6.48765 93.2937 6.4532 94.4375C6.82304 95.6027 5.94135 99.3119 7.70412 99.2537C9.96689 99.3918 12.2801 99.3289 14.4887 99.8611C15.8295 100.127 15.1915 102.392 15.6389 103.415C16.1469 106.135 15.9445 108.903 16.0113 111.654C15.954 112.213 16.4806 113.469 15.5657 113.429C14.9154 113.069 15.162 112.033 15.0174 111.397C15.0174 108.338 14.8703 105.299 14.3035 102.288C14.1571 101.847 14.506 100.989 14.1138 100.728C12.0425 100.122 9.85348 100.315 7.71903 100.147C5.73199 100.225 5.62273 97.889 5.59879 96.4173C5.65865 94.2078 4.43138 89.9953 7.61495 89.5808C8.88212 89.6395 9.84091 92.9667 10.3238 94.0162C10.7664 95.1775 12.3684 94.7437 13.3105 94.5273C14.5707 94.1625 14.3786 92.1382 14.3313 91.0683C14.3929 88.344 13.7688 85.6612 13.9717 82.9385C14.3724 80.2917 15.3692 76.7203 18.6462 76.7354C20.0829 76.8318 21.0608 78.1634 22.1091 79.0129C23.685 80.6058 22.9011 83.2745 23.1343 85.2851Z" fill="currentColor"/>
<path fill-rule="evenodd" clip-rule="evenodd" d="M13.2758 28.4119C13.2684 28.5341 13.2615 28.6497 13.2461 28.7477L13.2574 28.7486C12.9968 31.0422 14.6374 28.634 14.3877 27.6934C14.353 27.4239 14.0223 27.3148 13.7989 27.3367C13.3353 27.4296 13.3029 27.9654 13.2758 28.4119ZM6.62741 29.0349C6.60756 28.601 6.78938 28.5766 7.05517 28.5408C7.14417 28.5288 7.24259 28.5156 7.34601 28.4853C7.66776 28.6917 7.94442 30.7351 7.72986 30.9922C7.03115 31.2902 6.64192 29.5517 6.62741 29.0349ZM9.42525 39.3702C12.9452 39.364 13.2461 36.5253 11.0847 34.3185C10.4713 33.4874 9.36147 33.4541 8.38262 33.4248H8.3826C8.25144 33.4208 8.12263 33.417 7.99768 33.4113C7.92983 33.4259 7.8781 33.4638 7.8281 33.5005C7.7565 33.5531 7.68844 33.603 7.58162 33.578C6.57678 33.7134 6.06843 34.7968 5.7131 35.6349C5.14891 37.6686 7.56027 39.4338 9.42525 39.3702ZM4.92761 35.2364C4.06004 36.4721 5.07336 33.6486 5.33914 33.4321C5.89515 32.878 6.53239 32.3732 7.37584 32.3436C8.53823 32.3341 9.76524 32.3826 10.8232 32.903C12.3247 34.0158 13.6309 35.9972 13.2179 37.9324C12.8039 39.5085 10.98 40.0749 9.50936 40.099C6.85366 40.194 4.50869 37.776 4.92761 35.2364ZM18.9693 33.0741C18.5389 33.6347 17.9027 33.967 17.2677 34.2987C16.705 34.5927 16.1433 34.8861 15.7266 35.3374C14.7242 34.2882 18.74 31.3022 18.9693 33.0741ZM3.6967 41.7043C3.66378 41.7903 3.63178 41.8739 3.60025 41.954C3.55489 42.1591 3.63747 42.2634 3.72492 42.3738C3.78164 42.4454 3.84041 42.5196 3.86765 42.6255C4.11852 43.1943 4.68201 42.3875 4.85888 42.1211C4.91549 41.9798 5.03034 41.7843 5.15983 41.5639C5.60159 40.8121 6.21369 39.7703 5.26448 39.6025C4.40391 39.8562 4.00889 40.8885 3.6967 41.7043ZM7.98607 42.804C7.97086 42.5652 8.04028 42.3136 8.11186 42.0542C8.14318 41.9407 8.17491 41.8257 8.20014 41.7096C8.33055 41.3512 8.97886 41.3884 9.07274 41.7902C9.65016 43.286 8.22115 45.9591 7.98607 42.804ZM15.4579 39.9621C15.8197 40.2673 17.2491 41.2591 17.4673 40.5048C17.1823 39.7589 16.3341 39.1687 15.6062 38.8762C14.8004 38.8906 15.1406 39.5377 15.4579 39.9621ZM1.28721 36.0615C1.00285 36.0429 -0.489275 35.7319 0.16372 35.2496C1.4195 34.9013 4.54643 36.0219 1.28721 36.0615ZM12.1813 42.0052C12.079 42.0691 11.9777 42.1323 11.9439 42.2459C11.8483 42.6437 12.4388 43.1756 12.755 43.1404C13.1143 42.9281 12.8734 41.8695 12.4994 41.7384C12.484 41.7286 12.4287 41.7455 12.4262 41.7575C12.3888 41.8757 12.2845 41.9408 12.1813 42.0052Z" fill="currentColor"/>
<path fill-rule="evenodd" clip-rule="evenodd" d="M62.2051 6.44178C61.7475 6.70949 57.9258 7.85054 60.1707 7.88951C62.8394 7.93972 62.3306 8.74278 62.2051 6.44178ZM63.0105 7.11614C62.7779 7.74068 64.283 8.74826 64.7544 8.43167C64.9291 8.15108 64.5207 8.05416 64.4918 7.7937C64.3987 6.81238 64.2088 5.70467 64.6892 4.79457C64.7243 4.72297 64.6395 4.63766 64.5616 4.65281C63.5143 4.9554 63.0665 6.01606 63.0105 7.11614ZM66.0624 5.9114C66.2797 7.51156 64.802 9.62602 67.4433 8.00568C69.1013 6.69638 65.7273 3.14873 66.0624 5.9114ZM68.4626 9.56393C68.5901 12.5137 70.1473 15.2431 72.801 16.6292C74.0314 17.3549 75.7625 18.9571 77.1914 17.9271C77.793 17.3453 78.3872 16.7484 78.7431 15.9802C79.1037 15.3091 78.0398 14.9885 77.6641 14.5932C75.7445 13.2134 73.7471 11.9651 71.6963 10.791C70.7315 10.2054 69.7305 9.67583 68.8168 9.00817C68.3761 8.6536 68.4597 9.28649 68.4626 9.56393ZM63.6035 11.0252C63.616 11.025 63.6284 11.0248 63.6408 11.0247C63.24 16.3542 69.0748 21.3055 74.2891 19.5485C75.0041 19.2346 76.4823 18.8754 74.7949 18.5836C73.8913 18.1926 72.9994 17.7824 72.16 17.2665C69.0071 15.7393 67.3252 12.7759 67.5652 9.29987C67.5907 9.12151 67.583 8.85253 67.32 8.93762C63.9442 10.4286 63.4252 7.36383 63.6035 11.0252ZM68.7242 6.25568C68.8377 6.73719 68.4155 7.73288 68.7212 7.94049C70.0322 8.80509 71.4919 9.41647 72.8019 10.2895C74.6866 11.2635 76.4349 12.4446 78.1632 13.6706C78.6385 13.9854 78.93 14.5487 79.5496 14.5531C79.8651 14.5954 79.9947 14.732 80.0369 15.0136C80.3231 15.7417 79.6921 16.2656 79.35 16.8476C78.5083 18.2444 77.4411 19.4718 75.9366 20.1671C75.0034 20.6792 73.9807 20.9063 72.9373 21.0573C72.7185 21.1163 72.2376 20.99 72.3115 21.3627C72.5608 21.8972 72.6895 25.1198 73.0912 24.9595C73.7014 24.6758 77.5372 25.8916 75.7506 26.5377C75.0729 26.6685 72.9919 25.2179 73.4652 26.5639C73.5488 26.8697 73.6292 27.8497 73.1042 27.529C72.7119 27.1395 72.7744 26.4706 72.4141 26.1071C71.7359 26.406 71.5413 27.9026 70.6063 27.6133C70.2012 27.291 70.752 26.8605 70.9252 26.5583C71.2354 26.0043 72.012 25.5724 71.8127 24.8665C71.6065 23.68 71.2573 22.492 71.3787 21.2764C71.3768 20.7012 70.3369 20.9281 69.9491 20.6754C68.5387 20.3167 67.287 19.5706 66.0764 18.8265C65.9457 18.8785 65.9895 18.9985 66.0002 19.0887C66.0893 19.8343 66.085 20.5861 66.1821 21.3336C66.4224 21.8807 65.8538 24.1052 66.5065 24.0687C66.9394 23.9439 69.536 25.5971 68.4887 25.8861C67.9287 26.0533 66.8151 24.5559 66.5906 25.1264C66.4692 25.6474 66.8401 26.5223 66.3075 26.8228C65.5829 26.6381 66.0429 25.4859 65.6711 25.0203C64.9967 25.2101 64.3625 26.406 63.6058 26.034C63.3135 25.9134 63.269 25.5394 63.4974 25.3191C64.0313 24.6719 65.3386 24.518 65.4831 23.6464C65.4899 21.8714 65.1665 20.1091 65.2851 18.3315C65.2793 17.4818 64.5106 16.8785 64.0607 16.2144C62.5732 14.5513 62.6399 12.2265 62.7811 10.1404C62.6671 9.77143 63.3526 8.72404 62.8892 8.67389C61.3718 8.97544 59.7558 8.49415 58.1989 8.52694C57.9956 8.50526 57.7405 8.5307 57.6364 8.32043C57.3323 6.91721 61.1398 6.15975 62.175 5.69511C62.8051 5.30245 62.9291 4.40788 63.7886 4.10467C64.7778 3.75608 63.2496 3.04722 63.0023 1.8986C63.2794 0.632604 64.3924 3.01704 64.5755 3.40295C64.6049 3.61747 65.9567 3.7485 65.8658 3.36359C65.9651 2.45254 65.9211 1.37286 66.4229 0.592685C67.3252 0.258244 66.6408 2.8959 66.7233 3.39715C66.6805 3.99277 66.565 3.86754 67.1539 4.11441C67.3618 4.20149 67.391 4.19784 67.5103 4.01024C67.8719 3.4819 68.4095 3.02749 69.0045 2.83696C69.0791 3.47991 68.3979 4.01478 67.9079 4.37194C67.5574 4.45543 68.6716 5.93324 68.7392 6.27287L68.7242 6.25568Z" fill="currentColor"/>
<path fill-rule="evenodd" clip-rule="evenodd" d="M95.8452 108.302C95.8401 108.676 95.9446 108.897 96.2831 108.572C96.6851 108.053 96.7934 107.451 96.7578 106.815C96.4115 106.419 95.7415 107.968 95.8452 108.302ZM91.4795 105.349C91.4272 104.49 91.2284 103.555 90.4384 103.042C90.366 102.986 90.2791 102.967 90.2131 103.035C89.2182 103.927 89.1482 105.609 89.9882 106.622C90.2452 106.915 90.5679 106.906 90.9047 106.82C91.5779 106.644 91.4007 105.897 91.4795 105.349ZM82.7733 106.764C82.7081 108.318 84.0361 109.714 85.6411 109.188C86.8088 108.58 85.6158 106.377 84.6389 105.996C83.3647 105.56 82.8165 105.034 82.7733 106.764ZM89.6876 102.559C88.0192 101.481 85.5463 101.463 84.1224 102.839C83.9047 103.212 82.9083 104.648 83.4043 104.911C84.2664 105.139 85.1851 105.335 85.7983 106.031C87.6764 108.207 86.542 110.846 83.5642 109.577C82.4831 109.056 82.0159 107.93 82.0373 106.792C81.9297 106.455 82.339 105.762 81.9397 105.62C80.0459 105.579 78.6164 106.99 77.7902 108.55C77.3224 109.46 77.5464 110.53 77.5301 111.512C77.6009 112.046 77.6422 113.212 78.3717 113.186C81.2265 113.074 84.0928 113.072 86.9505 112.969C89.7565 112.787 92.5735 112.922 95.3785 112.726C95.9743 112.776 98.9733 112.302 99.0686 112.719C99.0893 113.131 99.5085 113.082 99.811 113.077C100.459 112.982 101.292 113.211 101.85 112.919C101.912 112.35 102.449 111.956 102.401 111.361C102.317 109.583 101.425 107.848 100.098 106.656C99.7107 106.198 97.6595 105.63 97.5442 106.489C97.4511 107.148 97.5361 107.864 97.1703 108.455C96.4739 109.616 95.0157 109.961 95.2767 108.158C95.7042 105.542 97.7477 106.933 96.5692 103.081C95.7361 101.772 93.7799 100.567 92.2526 101.456C91.824 101.713 91.443 102.03 91.0364 102.314C90.7934 102.497 91.2005 102.69 91.3068 102.834C92.5169 103.998 92.8261 107.491 90.5295 107.517C88.319 107.187 88.3827 103.86 89.6876 102.559ZM89.2524 113.996C87.0747 114.013 84.8976 113.978 82.7203 113.941C81.4891 113.928 80.2577 113.933 79.0286 113.841C78.5171 113.801 77.9554 114.046 77.584 113.577C76.4482 112.234 76.3175 109.057 77.4622 107.692C78.3043 106.492 79.415 105.265 80.9544 105.033C81.4107 104.87 82.2102 105.056 82.4476 104.574C82.674 103.904 82.9389 103.244 83.3538 102.663C84.625 100.883 87.3323 100.637 89.2424 101.473C89.6428 101.565 90.0054 101.975 90.4061 101.924C91.4942 101.154 92.5848 100.082 94.0416 100.45C96.5324 101.247 97.8018 102.78 97.6382 105.415C98.012 105.837 99.3861 105.105 100.38 106.027C101.891 107.193 102.784 108.965 103.175 110.786C103.504 111.746 102.764 112.437 102.778 113.25C102.891 113.616 102.568 113.822 102.221 113.759C101.389 113.723 100.558 113.711 99.7286 113.807C96.2375 113.9 92.7435 113.885 89.2523 113.983C89.2524 113.987 89.2524 113.992 89.2524 113.996Z" fill="currentColor"/>
<path fill-rule="evenodd" clip-rule="evenodd" d="M119.176 53.7164L119.176 53.7163L119.176 53.7163C119.104 53.4958 119.033 53.2769 118.973 53.0616C118.927 52.8667 118.889 52.6688 118.851 52.4711L118.851 52.4711C118.724 51.8113 118.598 51.1528 118.154 50.609C117.884 50.3194 117.645 49.9696 117.402 49.6159C116.881 48.8539 116.346 48.0738 115.471 47.8387C115.269 47.8095 115.2 47.8351 115.15 48.0434C114.416 50.1841 115.545 52.4862 117.254 53.835C117.351 53.8866 117.543 54.0434 117.776 54.2338C118.434 54.7706 119.421 55.5752 119.522 55.048C119.466 54.6075 119.32 54.1586 119.176 53.7164ZM123.969 60.501C126.239 60.4707 128.529 59.1103 129.855 57.2773C130.478 56.1055 130.622 53.8201 129.888 52.6704C129.652 52.2375 129.427 51.7972 129.221 51.3494C129.025 50.9065 128.978 50.8937 128.623 51.2513C128.324 51.4832 128.14 51.8033 127.957 52.1213L127.957 52.1213C127.82 52.359 127.684 52.5955 127.501 52.793C127.198 53.0766 126.955 53.4158 126.713 53.7537C126.348 54.2616 125.986 54.7667 125.424 55.0763C124.912 55.5697 124.579 56.2609 124.268 56.9044L124.228 56.9858C124.191 57.082 124.153 57.1785 124.115 57.2751C123.715 58.292 123.305 59.3345 123.145 60.4094C123.249 60.5748 123.415 60.5508 123.614 60.5221C123.723 60.5062 123.843 60.4888 123.969 60.501ZM113.95 62.5506C114.598 62.5737 117.562 62.2923 117.656 61.5121C116.708 60.0754 115.395 58.9229 113.864 58.1425C113.446 58.0106 112.967 57.8374 112.452 57.651C110.24 56.8506 107.355 55.8064 105.706 56.7431C105.848 57.1131 105.946 57.5143 106.046 57.918C106.259 58.7844 106.475 59.662 107.125 60.2663C109.099 61.7186 111.402 62.374 113.95 62.5506ZM120.334 63.696C120.333 63.5192 120.331 63.3429 120.33 63.1669C120.317 61.0678 120.304 59.0252 119.876 56.9643C119.727 56.4599 119.239 56.2761 118.75 56.0918C118.448 55.9777 118.145 55.8634 117.921 55.6728C115.819 54.3912 113.851 52.2782 113.888 49.6752C113.902 49.5883 113.917 49.4647 113.935 49.3166L113.935 49.3165V49.3165C114.047 48.3822 114.277 46.4712 114.998 46.601C116.528 46.9829 116.958 47.2579 117.856 48.559C119.254 50.1558 119.542 51.2265 119.981 52.8578L119.981 52.8579C120.077 53.2165 120.181 53.6022 120.306 54.0266C120.804 56.2394 121.237 58.4883 121.242 60.7662C121.26 61.4306 121.224 62.0831 121.187 62.7335V62.7336V62.7336C121.134 63.691 121.081 64.6441 121.202 65.6242C121.318 64.9868 121.424 64.3395 121.529 63.6886C122.124 60.0276 122.736 56.2538 125.469 53.5055C126.069 53.0684 126.514 52.5055 126.96 51.9407C127.255 51.568 127.55 51.1945 127.891 50.8557C129.283 49.2075 129.708 50.1496 130.227 51.2999C130.379 51.6363 130.538 51.9905 130.733 52.3029C132.905 56.9437 128.835 61.4103 124.111 61.4448C123.986 61.4492 123.838 61.4234 123.688 61.3974C123.28 61.3265 122.859 61.2534 122.868 61.7789C122.756 62.651 122.608 63.5188 122.46 64.3867L122.46 64.3869C122.334 65.1252 122.208 65.8637 122.104 66.6051C122.102 66.7272 122.087 66.8566 122.072 66.9883L122.072 66.9883C122.034 67.3261 121.994 67.6785 122.168 67.9589C122.287 68.1104 122.315 68.2847 122.321 68.4698C122.365 69.7705 122.422 71.0715 122.504 72.3701C122.104 72.98 121.202 72.9346 121.203 71.6321C121.205 69.2652 120.683 66.8834 119.6 64.7487C119.543 64.6427 119.469 64.4789 119.38 64.2857L119.38 64.2856C119.031 63.5214 118.47 62.2966 117.979 62.3676C115.598 63.5114 112.9 63.5073 110.412 62.7287L110.394 62.723C108.661 62.1708 106.643 61.5277 105.644 59.8927L105.61 59.8163C105.213 58.9107 103.95 56.0312 104.587 55.4818C104.69 55.3466 104.907 55.339 105.01 55.4776C105.173 55.9061 105.965 55.8001 106.738 55.6967C107.257 55.6273 107.766 55.5591 108.072 55.654C110.529 55.9437 112.942 56.7681 115.186 57.7912C117.535 59.1238 118.883 61.3256 120.271 63.5924L120.334 63.696ZM117.718 68.7202C116.429 68.2474 114.817 68.0568 113.704 69.0134C113.297 69.3195 112.749 70.3175 113.335 70.6378C114.74 70.9037 115.971 69.9969 117.079 69.1813L117.079 69.1813C117.297 69.0208 117.51 68.8639 117.718 68.7202ZM115.878 67.4898C116.903 67.5179 117.862 67.9134 118.796 68.2987L118.796 68.2988C118.965 68.3687 119.134 68.4382 119.302 68.5051C119.361 68.593 119.473 68.7014 119.594 68.8193L119.594 68.8193C119.881 69.0987 120.223 69.4316 120.062 69.6716L119.965 69.6105C119.402 69.2557 118.761 68.8517 118.115 69.2608C117.735 69.4647 117.369 69.6969 117.003 69.9292L117.003 69.9292C116.282 70.3861 115.561 70.8433 114.738 71.0856C112.466 71.7036 111.645 70.215 113.156 68.4965C113.899 67.8561 114.893 67.4806 115.878 67.4898ZM124.354 65.3848C124.649 64.8198 125.128 64.3395 125.637 63.9841C126.034 63.5749 127.004 64.0266 126.32 64.4424C125.677 64.9006 125.146 65.4731 124.613 66.0464C124.431 66.2427 124.248 66.4391 124.061 66.6311C123.414 67.1274 124 66.0443 124.256 65.5695C124.303 65.4839 124.338 65.4181 124.354 65.3848ZM125.675 63.1217C123.896 63.9841 122.249 67.0682 123.301 68.9191C123.359 68.775 123.397 68.6357 123.434 68.5028C123.524 68.1813 123.602 67.8975 123.921 67.6755C124.351 67.2694 124.791 66.874 125.231 66.4785C125.89 65.886 126.55 65.2934 127.174 64.665C127.893 63.829 126.495 62.7995 125.675 63.1217Z" fill="currentColor"/>
<path fill-rule="evenodd" clip-rule="evenodd" d="M58.884 40.8007C58.957 40.634 59.1829 40.7608 59.2183 40.9127C59.1732 41.1192 58.8731 40.9475 58.884 40.8007ZM70.2374 45.643C70.2354 45.4688 70.3866 45.1805 70.595 45.262C70.7064 45.3984 70.3492 45.9413 70.2374 45.643ZM72.0835 48.1479C72.2585 48.3337 71.9131 48.6153 71.7535 48.5941C71.515 48.453 71.8452 48.1744 72.0835 48.1479ZM68.1854 42.1496C67.9837 41.9386 68.247 41.511 68.5085 41.5295C68.6369 41.7659 68.4499 42.0787 68.1854 42.1496ZM66.7191 48.336L66.705 48.3354C66.6028 47.8186 66.633 47.2985 66.6631 46.7809C66.6874 46.3624 66.7116 45.9455 66.6657 45.5331C65.8648 44.5652 63.1862 43.9062 61.4015 43.4672L61.4014 43.4672C61.0262 43.3749 60.6905 43.2923 60.4201 43.2187C60.3689 43.2077 60.3229 43.1973 60.2813 43.188C60.0891 43.1449 59.9935 43.1235 59.9325 43.1599C59.8721 43.196 59.8455 43.2888 59.7927 43.4733C59.7802 43.5172 59.7662 43.5662 59.7498 43.6209C59.6983 43.7938 59.6531 43.9686 59.608 44.1434L59.608 44.1435C59.579 44.2555 59.5501 44.3675 59.5195 44.479C59.1557 45.7248 58.4457 46.8595 57.6602 47.884C57.2864 48.4574 56.9476 48.8221 56.7177 49.0695C56.5131 49.2898 56.3949 49.417 56.4152 49.5158C56.443 49.6511 56.7306 49.7329 57.4117 49.9267L57.4119 49.9268C57.5595 49.9688 57.7256 50.016 57.9116 50.0703C58.0097 50.1276 58.1248 50.147 58.2361 50.1658C58.4217 50.1972 58.5969 50.2267 58.6655 50.4271C58.8489 50.7426 58.8051 50.8648 58.7371 51.0547C58.7092 51.1326 58.6772 51.2218 58.6551 51.3404C58.6751 51.502 58.6297 51.7243 58.5825 51.9552C58.4983 52.3677 58.4085 52.8073 58.6765 52.975C59.2621 53.1287 59.8622 52.9877 60.4079 52.7561C60.5964 52.6723 60.74 52.528 60.8845 52.3826C61.0065 52.26 61.1292 52.1366 61.2802 52.0484C61.9146 51.9824 60.867 53.3532 60.5581 53.3472C60.4596 53.3809 60.3608 53.4168 60.2617 53.4529C59.74 53.6428 59.2084 53.8362 58.6461 53.7306C58.4869 53.7021 58.4355 53.7472 58.4343 53.913C58.3255 54.6772 58.6124 55.383 59.4641 55.4389C61.078 55.6577 62.6932 55.8273 64.3123 55.9772C64.5928 55.9882 64.8441 55.984 65.0686 55.9803C66.1286 55.9628 66.5898 55.9552 66.6896 57.6014C66.7072 57.9546 66.7552 58.3128 66.8034 58.6719C66.9047 59.4281 67.0067 60.1886 66.8265 60.9167C66.9357 61.1011 66.843 61.2935 66.7561 61.4738C66.6595 61.6743 66.5701 61.8598 66.7736 62.0027C67.8793 63.1581 70.2624 62.9073 71.4008 61.898C71.4882 61.7834 71.6219 61.6718 71.7599 61.5566L71.76 61.5566C72.0714 61.2966 72.405 61.0182 72.2786 60.6454C71.7426 59.2762 71.0401 57.9865 70.2092 56.7751C69.8134 56.2071 69.4405 55.6242 69.0678 55.0417L69.0678 55.0417L69.0678 55.0416L69.0677 55.0416L69.0677 55.0415C68.8462 54.6953 68.6248 54.3492 68.3987 54.0064C68.249 53.7507 67.9799 53.7388 67.7086 53.7267C67.5746 53.7208 67.44 53.7148 67.319 53.6794C66.9036 53.3817 67.3631 53.336 68.0524 53.2674C69.0596 53.1671 70.5575 53.018 70.5329 51.9626C70.6541 50.0574 69.0159 49.6546 67.5508 50.4139C67.2507 50.7088 67.2279 50.6773 67.0684 50.4577C67.0393 50.4177 67.0057 50.3714 66.9651 50.3197C66.6466 50.0069 66.6821 49.5235 66.7169 49.0505C66.7353 48.8006 66.7534 48.5535 66.7191 48.336ZM67.7435 49.5714C67.8631 49.5017 67.9927 49.4261 68.0879 49.4742C68.1062 49.4758 68.1245 49.4768 68.1429 49.4778C68.1851 49.4801 68.2274 49.4824 68.2686 49.4921C68.2335 49.4538 68.1872 49.4596 68.1406 49.4653C68.1224 49.4676 68.1041 49.4698 68.0865 49.4695C70.128 48.4849 71.8741 50.603 71.1164 52.6046C71.0644 53.0078 71.5663 52.5446 71.6817 52.4298C71.7937 52.3037 71.9183 52.171 72.0484 52.0326C72.8744 51.1537 73.9197 50.0414 73.329 48.8693C73.2761 48.8214 73.2214 48.7291 73.1633 48.6311C73.0273 48.4015 72.8727 48.1404 72.6772 48.3437C72.3135 49.4967 70.486 48.7409 71.6532 47.9367C71.7428 47.8725 71.8673 47.8438 71.9916 47.8152C72.1916 47.7692 72.3911 47.7232 72.4442 47.5295C72.6667 46.6431 72.7517 45.3646 71.5592 45.2164C71.2947 45.1883 71.2062 45.4189 71.1145 45.658C71.0528 45.8187 70.9897 45.9833 70.8707 46.0757C70.5821 46.4986 69.8176 46.217 69.8022 45.7266C69.7473 45.1011 70.0376 44.9821 70.3342 44.8604C70.5121 44.7874 70.6922 44.7135 70.8018 44.529C71.0121 43.3449 70.6955 41.6656 69.2413 41.5479C69.067 41.5322 69.0403 41.6873 69.0149 41.8353L69.0149 41.8353V41.8353C69.0041 41.8978 68.9936 41.9591 68.9722 42.0057C68.5148 43.2507 66.7523 42.0719 68.2283 41.0625C68.406 40.9694 68.4072 40.9286 68.3311 40.7469C67.6802 39.0496 65.595 38.5601 64.0291 39.1981C63.8297 39.3 63.7888 39.3981 63.8961 39.5935C64.1065 39.9101 64.0517 40.7429 63.5141 40.5444C63.1578 40.4325 63.1197 40.1092 63.1444 39.7758C63.2855 38.8524 60.3081 39.0746 59.7214 39.1913C59.3035 39.1878 58.295 39.7289 58.9514 40.0983C59.4545 40.2591 59.9572 40.6271 59.8553 41.219C59.5605 42.3716 58.3617 41.4054 58.0262 40.799C57.5235 40.8073 57.0517 41.2489 56.6724 41.604C56.6329 41.641 56.5943 41.6771 56.5569 41.7116C56.0387 42.1851 56.4202 42.8342 56.7091 43.3257L56.71 43.3272C56.9519 43.7549 57.4003 43.857 57.8566 43.9608C58.1575 44.0294 58.4618 44.0986 58.7125 44.2626C58.8234 44.3138 58.9048 44.2777 58.9466 44.1653C59.4928 42.48 59.725 42.5376 61.1803 42.8981C61.2528 42.9161 61.3282 42.9348 61.4069 42.954C63.1566 43.3516 64.876 43.8759 66.5355 44.5629C67.0858 44.7997 67.3281 45.2248 67.3866 45.7887C67.3436 46.3517 67.3859 46.9136 67.4281 47.4748C67.4798 48.1626 67.5314 48.8494 67.4259 49.536C67.4523 49.7411 67.5896 49.6611 67.7435 49.5714ZM63.5783 38.9603C64.1306 38.6196 64.745 38.5249 65.3836 38.4971C67.5989 38.5617 68.0744 39.4094 68.4729 40.12C68.7079 40.539 68.9162 40.9104 69.4389 41.0453C71.3163 41.5396 71.3572 42.9278 71.385 43.8712C71.3994 44.3596 71.4103 44.7287 71.6707 44.7928C72.6937 44.9161 73.2834 45.931 73.087 46.9108C73.0743 46.9786 73.0581 47.0475 73.0419 47.1164L73.0419 47.1164C72.957 47.4767 72.8724 47.836 73.3045 48.0193C75.222 49.6511 73.209 52.35 71.6059 53.3886C71.3133 53.5977 71.0624 53.5432 70.803 53.487C70.6214 53.4475 70.4356 53.4072 70.2285 53.4561C70.1457 53.5091 69.9819 53.5373 69.8098 53.5668C69.4938 53.6211 69.1496 53.6802 69.2262 53.9075C69.7542 54.5675 70.2481 55.2395 70.5967 56.0036C71.0269 56.4098 71.2716 56.9303 71.4994 57.4613C71.591 57.6114 71.7273 57.9623 71.886 58.3708L71.886 58.3708C72.2332 59.2645 72.6875 60.434 73.0157 60.3808C73.0519 60.3735 73.1165 60.4055 73.1371 60.4387C73.1846 60.5153 73.2258 60.5749 73.2596 60.6237L73.2596 60.6238C73.4053 60.8344 73.4132 60.8458 73.1981 61.1649C71.8514 63.2612 68.8508 64.2532 66.6637 62.9172C66.6178 62.8808 66.5659 62.8424 66.5112 62.802L66.5111 62.8019C66.1733 62.5521 65.7275 62.2225 65.9038 61.7923C66.1567 60.9307 66.0131 60.0368 65.8685 59.1364C65.754 58.4236 65.6389 57.7068 65.7193 56.9988C65.71 56.8357 65.5587 56.8231 65.4227 56.8119H65.4227C65.3876 56.8089 65.3535 56.8061 65.3232 56.8008C64.9498 56.7588 64.5754 56.7188 64.2004 56.6789H64.2004C62.429 56.4901 60.6467 56.3002 58.9208 55.8779C57.4858 55.2969 57.7291 53.5637 57.9296 52.1361L57.9296 52.1361L57.9296 52.136C57.9778 51.7922 58.0236 51.4661 58.0429 51.1781C58.0762 50.9234 58.0577 50.8714 57.8125 50.7515C57.5733 50.5644 57.1535 50.4617 56.7424 50.361C55.8982 50.1544 55.0903 49.9567 55.9562 49.0555C59.1583 44.7431 58.9458 44.7185 57.9737 44.6058C57.2564 44.5226 56.1256 44.3915 55.6477 42.4546C55.5544 41.2777 56.8194 40.5846 57.7491 40.1745C57.9943 40.0392 58.0585 39.8282 58.1252 39.6085C58.2166 39.308 58.3129 38.9913 58.8845 38.8299C59.7626 38.5523 60.7135 38.5791 61.6271 38.6162C62.1709 38.6659 62.711 38.7273 63.2088 38.9736C63.3395 39.0383 63.4505 39.0392 63.5783 38.9603ZM60.5027 47.2543C60.3984 47.366 60.3083 47.4623 60.2507 47.5022C61.1232 48.5616 61.1781 48.1184 61.2774 47.3165C61.2937 47.185 61.3112 47.0437 61.3337 46.8979C61.2292 46.477 60.8055 46.9303 60.5027 47.2543ZM62.3677 47.757C62.3749 47.9695 62.3814 48.165 62.3483 48.2636C62.3293 48.6919 62.9539 48.4078 63.355 48.2254C63.4658 48.1751 63.5595 48.1325 63.6179 48.1147C63.7851 47.6917 63.013 47.0538 62.6051 46.9112C62.3379 46.8686 62.3539 47.3448 62.3677 47.757ZM60.3969 46.437C60.6605 46.1646 60.8802 45.9376 61.5276 45.9701C63.0808 45.7534 65.4561 48.2091 63.3889 48.7261C61.9145 49.7752 58.055 47.4217 59.9337 46.8377C60.1333 46.7096 60.2702 46.568 60.3969 46.437ZM61.7041 44.2394C61.895 44.6086 62.3329 44.715 62.7667 44.8204C63.0224 44.8826 63.2767 44.9443 63.478 45.0594C63.5278 45.0749 63.6229 45.128 63.7336 45.1897C64.0726 45.3786 64.5571 45.6488 64.3299 45.1723C63.6852 44.577 62.5584 43.7802 61.7041 44.2394ZM67.8999 51.6876C67.8057 51.6939 67.7359 51.6986 67.7044 51.7025C67.5604 51.7227 67.2534 51.7048 67.3863 51.4845C67.77 51.0885 68.4178 51.1517 68.9636 51.2049C69.0516 51.2135 69.1369 51.2218 69.2181 51.2279C69.8504 51.557 68.4541 51.6505 67.8999 51.6876Z" fill="currentColor"/>
<path fill-rule="evenodd" clip-rule="evenodd" d="M44.8724 67.0911C44.7536 66.8663 44.5864 66.8832 44.3725 66.9049L44.3672 66.9054C43.8096 66.9507 43.2519 66.9979 42.6949 67.0507C42.3822 67.1522 42.0737 67.3003 41.7637 67.4492L41.7637 67.4492L41.7637 67.4492C41.5105 67.5708 41.2562 67.6929 40.9979 67.7905C40.8988 67.8393 40.8181 67.8271 40.7406 67.8153C40.6388 67.7999 40.5428 67.7853 40.4185 67.9116C40.2526 68.0451 40.0693 68.1811 39.8798 68.3217C39.079 68.9158 38.1687 69.5911 38.0004 70.5C38.9295 69.6793 39.9626 68.8503 41.1981 68.4508C42.1645 68.0716 43.1547 67.7611 44.1593 67.4975C44.2004 67.4855 44.2412 67.4746 44.2814 67.4639L44.2814 67.4639C44.5195 67.4004 44.7373 67.3423 44.8724 67.0911ZM43.4535 68.3297C43.3207 68.3738 43.1856 68.418 43.0486 68.4628C41.3925 69.0045 39.4793 69.6303 38.4447 71.0146C38.8395 71.1398 39.2446 71.0632 39.6483 70.9868C40.124 70.8968 40.5979 70.8072 41.0512 71.0481C41.4775 71.3053 41.7613 70.7678 42.0232 70.2718C42.1592 70.0142 42.2894 69.7677 42.4305 69.6496C42.5501 69.4499 42.7234 69.2732 42.8954 69.0978C43.1307 68.8579 43.3636 68.6205 43.4535 68.3297ZM48.0164 63.6797C46.396 63.7965 44.8682 64.1723 43.475 65.0115C43.2337 65.1497 43.1961 65.4085 43.1573 65.675C43.1279 65.8778 43.0978 66.085 42.9767 66.2467C42.8997 66.4804 43.1392 66.4471 43.344 66.4187C43.4262 66.4072 43.5028 66.3966 43.5511 66.4043C43.8595 66.3674 44.1084 66.4311 44.3093 66.4826C44.701 66.583 44.9101 66.6365 45.0216 65.806C45.6672 64.1741 46.5528 64.4004 47.3254 64.5979C47.7535 64.7073 48.147 64.8078 48.4457 64.5785C49.6201 63.7909 49.298 63.7693 48.4566 63.7128C48.3218 63.7038 48.1738 63.6938 48.0164 63.6797ZM40.0904 77.265C40.9501 77.0466 41.7265 76.7561 42.5384 76.4339C42.6876 76.2506 42.8743 76.1036 43.0602 75.9572C43.2894 75.7768 43.5174 75.5973 43.6722 75.3519C44.2479 73.7987 44.9751 72.354 45.9651 71.0146C46.1572 70.6572 46.4649 70.3965 46.7658 70.1414L46.7659 70.1414C46.9259 70.0058 47.084 69.8718 47.2218 69.7257C47.1677 69.634 47.0519 69.6275 46.9375 69.621C46.8633 69.6169 46.7898 69.6127 46.734 69.5854C46.4955 69.5029 46.3038 69.4849 46.1654 69.7565C45.3736 70.2248 44.7849 70.8938 44.3284 71.7009C43.9122 72.2698 43.5268 72.8566 43.1425 73.4418C42.245 74.8083 41.3536 76.1656 40.0904 77.265ZM48.6538 71.4746C48.5756 69.9296 48.1196 69.545 47.9893 71.3768C47.9203 72.4923 47.7101 73.6135 47.1932 74.611C46.7072 75.4975 46.1376 76.3294 45.5679 77.1615C45.2 77.6988 44.832 78.2362 44.4866 78.7883C44.462 78.951 44.123 79.3102 43.7684 79.6859C43.149 80.3421 42.482 81.0487 43.3594 80.8473C47.0096 79.4029 47.9745 74.9308 48.6538 71.4746ZM49.2311 61.2391C47.1916 61.1963 45.3101 61.9151 43.6232 63.0142C43.528 63.0648 43.4491 63.1017 43.3842 63.1322C43.2641 63.1884 43.1915 63.2224 43.1503 63.2792C43.0874 63.3659 43.0977 63.5057 43.1237 63.859C43.1248 63.8744 43.126 63.8901 43.1272 63.9063C43.0296 64.4921 43.5548 64.1786 44.1713 63.8107C44.6336 63.5348 45.1472 63.2282 45.488 63.2472C45.5682 63.2315 45.6485 63.2155 45.7289 63.1995L45.7294 63.1994C46.7323 62.9995 47.746 62.7976 48.7553 63.0732C48.9124 63.0808 49.0811 63.1385 49.2504 63.1964C49.5887 63.3121 49.9298 63.4287 50.1871 63.1491C50.2548 63.0821 50.3199 63.0178 50.3825 62.956C51.281 62.0687 51.6527 61.7018 51.5781 61.5381C51.5255 61.4227 51.2509 61.4085 50.7828 61.3842C50.3938 61.364 49.8711 61.3369 49.2311 61.2391ZM55.1925 56.6834C53.3676 55.8218 51.0402 56.191 49.117 56.6275C47.2742 57.2735 45.3491 58.3306 44.2716 60.007C44.1003 60.3901 44.6057 60.0172 44.7638 59.9006L44.7876 59.883C47.3194 58.3364 50.5129 57.0568 53.4871 57.9181C53.6186 57.9244 53.758 58.0125 53.8949 58.0991C54.0966 58.2266 54.293 58.3507 54.4506 58.2052C54.5315 58.0401 54.6232 57.8769 54.7151 57.7132L54.7151 57.7131C54.9029 57.3788 55.0918 57.0423 55.1925 56.6834ZM41.8854 80.2993C41.7546 81.2701 42.4117 80.4986 42.9478 79.8694L42.9478 79.8693C43.1825 79.5938 43.3939 79.3456 43.5059 79.2827C44.0488 78.6526 44.4948 77.9443 44.9398 77.2379L44.9398 77.2379C45.1179 76.9551 45.2958 76.6727 45.4796 76.3957C45.6357 76.1038 45.8065 75.819 45.9771 75.5343C46.3991 74.8303 46.8207 74.1269 47.0203 73.3197C47.0813 72.9837 47.1794 72.645 47.2777 72.3052C47.4511 71.7055 47.6255 71.1026 47.5991 70.5065C46.4003 71.3789 45.7782 72.7714 45.1651 74.1438C44.8806 74.7804 44.5981 75.4128 44.2609 75.9869C43.8514 76.638 43.4795 76.9549 43.1545 77.2318C42.5459 77.7504 42.1021 78.1285 41.8854 80.2993ZM37.9306 77.5122C39.6923 77.1679 40.9449 75.1371 42.1766 73.1401C43.2529 71.3951 44.3133 69.6758 45.6837 69.1301C45.6733 68.9643 45.574 68.8516 45.4744 68.7387C45.4026 68.6572 45.3308 68.5757 45.292 68.474L45.2759 68.4362C45.2158 68.2941 45.1277 68.0857 44.9576 68.1227C43.9556 68.7092 43.2896 69.6474 42.6245 70.5843C42.2439 71.1205 41.8635 71.6563 41.4206 72.1255C41.1812 72.7559 40.4892 73.4496 39.7763 74.1644C38.6602 75.2833 37.4929 76.4536 37.9306 77.5122ZM54.1589 58.5626C50.891 57.9622 47.08 59.0045 44.3795 60.9316C44.1306 61.0988 42.8504 62.1663 43.3641 62.3207C45.8158 60.35 49.0755 60.027 52.0138 60.9858C52.7263 60.9265 53.8134 59.2137 54.1589 58.5626ZM45.9142 67.619C46.2231 68.8477 47.0552 68.806 47.8897 68.7643C48.5181 68.7328 49.1477 68.7013 49.5565 69.2118C50.3575 70.6782 49.7524 72.5069 49.2615 73.9897C49.2588 74.0694 49.2225 74.1835 49.1836 74.3057C49.0955 74.5826 48.9942 74.9008 49.2425 74.9519C49.5787 74.7457 49.8242 74.9387 50.0776 75.1379C50.1541 75.1981 50.2313 75.2588 50.3119 75.3092C51.2403 75.9449 52.3055 76.3971 53.4077 76.6351C55.1401 76.8632 56.8191 75.6199 57.8898 74.3601C58.0971 74.1314 57.5505 74.1019 56.8516 74.0641C56.0571 74.0212 55.0656 73.9676 54.7613 73.5986C53.3055 72.6974 53.4324 71.6531 55.1109 72.9119C55.8518 73.3968 56.7131 73.3331 57.5597 73.2705C57.8075 73.2522 58.0539 73.234 58.2958 73.2296C58.8439 72.9682 59.1271 72.3258 59.3937 71.721C59.4983 71.4835 59.6004 71.2519 59.715 71.0513C59.9651 70.4954 60.0856 69.8982 60.206 69.3014C60.268 68.9942 60.33 68.6871 60.4096 68.3857C60.4159 68.3585 60.4219 68.3323 60.4277 68.3071C60.498 68.0033 60.5331 67.8516 60.4731 67.7831C60.4133 67.7149 60.2589 67.7295 59.9506 67.7586C59.9259 67.761 59.9003 67.7634 59.8737 67.7659C59.6999 67.7497 59.4877 67.7824 59.2687 67.8162C58.7622 67.8942 58.2194 67.9778 58.0316 67.4759C57.6402 66.3754 57.4438 65.2359 57.247 64.0948L57.247 64.0948C57.1475 63.5179 57.048 62.9407 56.9232 62.3678C56.7703 61.6477 56.5122 60.9628 56.254 60.2777C56.0362 59.6998 55.8184 59.1217 55.6636 58.5223C55.6297 58.1824 55.3844 58.0978 55.2806 58.4938C55.2382 58.5534 55.1954 58.6129 55.1526 58.6725L55.1525 58.6726C54.9936 58.8934 54.8342 59.1148 54.6936 59.3463C53.8499 60.7769 52.6353 61.9194 51.4305 63.0526L51.4305 63.0526L51.4304 63.0527C51.1695 63.2981 50.9091 63.5431 50.653 63.7904C50.386 64.128 49.9471 64.3529 49.5227 64.5705C48.9974 64.8398 48.4943 65.0977 48.3666 65.5437C48.3638 65.5573 48.3428 65.5671 48.317 65.5791C48.3035 65.5854 48.2887 65.5923 48.2745 65.6007C47.9833 65.4167 47.6486 65.3825 47.3143 65.3484C47.2406 65.3408 47.167 65.3333 47.0938 65.3242C46.3759 65.2176 45.9957 66.0427 45.8681 66.6313C45.7302 66.986 45.9161 67.0223 46.1398 67.0659C46.3007 67.0973 46.4811 67.1325 46.5746 67.2927C46.6811 67.5251 46.4015 67.5531 46.1613 67.5772C46.0622 67.5871 45.9699 67.5964 45.9142 67.619ZM48.8213 75.6643C47.9083 78.0608 46.6696 80.551 44.1394 81.5477C43.7398 81.7413 43.3164 81.7414 42.8944 81.7415C42.4517 81.7415 42.0104 81.7416 41.5997 81.9652C41.4979 81.9721 41.3968 81.9454 41.3636 81.8316C40.9579 81.1209 40.7667 80.7554 40.9663 79.8923C41.0908 79.226 41.2585 78.5729 41.5405 77.9535C41.6941 77.7238 41.4536 77.7067 41.2978 77.7821C37.6578 79.5588 34.9514 78.6596 37.8272 74.6265C37.9096 74.4631 38.298 74.0909 38.737 73.6701C39.5219 72.918 40.4686 72.0108 40.1183 71.8641C39.1377 72.0641 38.1185 72.0617 37.2661 71.4786C35.7592 69.7182 39.511 67.0666 40.9515 66.4282C41.7295 66.1719 42.223 65.5968 41.9877 64.7533C41.3299 61.0491 43.8686 57.6203 47.2155 56.2672C49.5899 55.239 52.5744 54.8673 54.997 55.8938C55.8645 56.7773 56.3091 57.9999 56.7483 59.2074C56.96 59.7894 57.1704 60.3679 57.4262 60.9033C57.852 61.9164 58.0333 62.9862 58.2148 64.0572C58.3059 64.5946 58.397 65.1324 58.5192 65.6634C58.5869 65.8233 58.6179 66.0389 58.6496 66.2587C58.7287 66.8079 58.8116 67.3829 59.4791 67.1779C59.664 67.1999 59.9123 67.1625 60.172 67.1234C60.7882 67.0307 61.4686 66.9283 61.5191 67.5848C61.2789 68.2042 61.1138 68.8539 60.9487 69.504C60.6631 70.6279 60.3772 71.753 59.7028 72.7254C59.442 73.0833 59.2326 73.4769 59.0237 73.8698C58.6733 74.5286 58.3241 75.1852 57.7354 75.6672C56.1204 77.0957 53.9393 78.1083 51.8116 77.2559C51.7361 77.2281 51.6331 77.1927 51.5108 77.1506C50.6626 76.8586 48.8855 76.2468 48.9178 75.651L48.8213 75.6643ZM55.4631 66.6707C55.523 66.3827 55.43 66.143 55.337 65.9034C55.2575 65.6984 55.178 65.4935 55.1941 65.2585C56.1217 63.5502 56.9718 67.3316 55.9685 67.8908C54.4193 69.7958 53.2072 67.6356 53.1047 66.0164C53.0622 65.7458 53.1093 65.3309 53.4451 65.3117C53.7605 65.3807 53.8267 65.7795 53.8932 66.1802C53.9392 66.4578 53.9855 66.7364 54.1149 66.9067C54.4236 68.0657 55.569 67.8401 55.4631 66.6707ZM48.932 67.6822C48.981 67.694 49.0217 67.7037 49.052 67.7112C50.5192 67.3122 48.8298 66.8202 48.2481 66.6978C48.1407 66.6769 48.0283 66.646 47.9143 66.6146C47.4592 66.4894 46.9782 66.3571 46.6866 66.8234C46.6617 67.1377 48.3636 67.5459 48.932 67.6822Z" fill="currentColor"/>
<path fill-rule="evenodd" clip-rule="evenodd" d="M84.2007 60.4331C85.8935 59.52 86.0044 59.4602 86.1311 63.054C85.9787 66.4485 85.7651 69.7019 83.7133 72.5675C82.1444 74.8513 79.8246 77.5587 76.7462 76.9486C73.8337 76.1802 74.0171 72.0138 74.3174 69.6157C74.6666 67.8772 75.1302 66.0235 75.899 64.4628C75.9749 64.699 75.9648 64.985 75.9546 65.2718C75.9475 65.4736 75.9403 65.6758 75.9631 65.8614C76.0298 66.913 77.4845 66.8729 77.9471 66.1106C78.303 65.5289 78.5691 64.7991 78.5686 64.1178C78.2315 63.5641 77.974 64.1889 77.787 64.6425L77.787 64.6425L77.787 64.6426C77.734 64.7713 77.6866 64.8862 77.6447 64.9565C76.9414 66.9116 76.3215 66.1106 76.5326 64.4847C76.542 64.2921 76.5111 64.1511 76.29 64.065C75.8085 63.9971 76.5601 62.6681 76.9042 62.7635C80.7161 62.3127 82.9148 61.1267 84.2007 60.4331ZM88.0173 70.9437C88.0558 68.5595 88.0771 66.113 88.0213 63.7388C88.0611 61.8634 87.3378 59.9256 86.3363 58.3712C82.9895 55.4223 78.4488 58.8476 76.0261 61.4763C73.6541 64.5502 71.972 68.1663 70.4148 71.7437C70.3283 71.9901 70.1947 72.3414 70.0332 72.7658L70.0332 72.7659C69.0817 75.2674 67.1647 80.3067 68.2468 81.3559C69.2894 82.0342 69.9718 81.3128 70.6472 80.5987C70.7354 80.5054 70.8236 80.4122 70.9124 80.3223C71.4893 79.6901 72.1338 79.1319 72.7786 78.5734C73.404 78.0318 74.0296 77.49 74.5938 76.8804C74.7773 76.7722 75.017 76.9242 75.3453 77.1326C75.8856 77.4754 76.6661 77.9706 77.8318 77.7092C78.6168 77.7667 79.3511 77.5018 80.0762 77.2402L80.1341 77.2194C80.4589 77.2016 80.2555 77.8213 80.0027 78.5912C79.7187 79.4561 79.3725 80.5105 79.6432 81.0634C79.9391 82.5288 81.8927 82.4396 82.9041 81.789C85.2115 80.4392 86.335 77.7917 87.1118 75.3429C87.1148 75.203 87.1832 75.094 87.2526 74.9832C87.3264 74.8654 87.4014 74.7457 87.4002 74.5851C87.4486 74.0378 87.5739 73.5042 87.6991 72.9712C87.8559 72.303 88.0126 71.6358 88.0173 70.9437ZM78.741 70.0319C77.7213 70.3592 79.4832 70.7948 79.8222 70.7829L79.8524 70.7802C80.5677 70.7151 81.5666 70.6243 81.3478 69.7328C81.0461 68.616 80.9374 67.473 80.8538 66.3233C80.8235 66.2401 80.8136 66.1202 80.8031 65.994C80.7801 65.7156 80.7546 65.407 80.502 65.3965C80.4827 65.3987 80.4634 65.4005 80.4444 65.4022C80.3052 65.4151 80.182 65.4264 80.1703 65.59C80.0683 67.0497 80.3593 68.5172 80.7682 69.9159C80.6319 70.2609 80.1762 70.1649 79.7071 70.066C79.3468 69.9901 78.9785 69.9125 78.741 70.0319ZM82.1973 65.5806C82.181 65.3872 82.1628 64.7421 82.4868 65.0077C82.4908 65.0318 82.4954 65.0617 82.5009 65.0965L82.5009 65.0967C82.5876 65.6519 82.8668 67.4402 83.3967 66.3867C83.4717 66.2681 83.5218 65.9243 83.5751 65.5583C83.6894 64.7735 83.8185 63.8872 84.2397 64.9043C84.516 67.024 82.3581 68.5028 82.1982 65.5806H82.1973ZM77.4051 72.268C76.3375 72.3399 77.9698 74.4021 78.6348 74.0878C79.3143 74.3565 80.1643 72.9677 79.1261 73.2441C78.4731 73.5821 78.1247 73.1375 77.7778 72.6948C77.6576 72.5414 77.5376 72.3883 77.4051 72.268Z" fill="currentColor"/>
<path fill-rule="evenodd" clip-rule="evenodd" d="M68.5714 97.4354C101.18 97.3814 109.908 64.6776 89.8843 45.4861C83.44 37.2894 61.356 32.7529 51.5599 32.3334C50.0311 32.6415 48.8534 33.6068 47.1729 33.2365C37.864 34.4147 32.1432 46.3603 28.8513 53.6491C23.6247 71.3348 41.2823 98.5451 68.5714 97.4354ZM27.342 55.9718C20.2739 63.698 32.091 42.6188 34.5531 40.7362C39.7041 35.9166 41.772 31.3565 49.5857 31.0997C60.3541 31.0165 72.485 33.4357 82.2855 37.9607C96.1956 47.6386 105.041 60.8735 101.215 77.7033C97.3802 91.4102 82.9743 98.3359 69.3506 98.5451C44.7483 99.3713 23.4612 78.0577 27.342 55.9718Z" fill="currentColor"/>
</svg>
