<svg width="74" height="78" viewBox="0 0 74 78" fill="none" xmlns="http://www.w3.org/2000/svg">
<path fill-rule="evenodd" clip-rule="evenodd" d="M43.8395 32.0727C43.3055 16.9331 42.8892 28.8772 21.7496 31.3774C20.9259 31.1489 19.1265 34.3307 20.2792 34.4931C20.8086 34.6992 20.8826 35.0368 20.8601 35.498C20.3546 39.3905 21.8388 41.3082 23.5226 36.6274C23.9762 35.8663 24.6982 32.9176 25.7345 34.6194C25.7356 36.2507 25.0985 37.9977 24.2465 39.3904C23.1389 41.2154 19.6565 41.3114 19.4968 38.7937C19.3646 37.7184 19.6528 36.409 19.3432 35.4454C17.5026 39.1819 16.3928 43.6198 15.5568 47.7818C14.8378 53.523 14.3987 63.4975 21.3714 65.3372C28.7412 66.7979 34.295 60.3161 38.0512 54.8486C42.9632 47.9881 43.4745 40.1993 43.8395 32.0727ZM48.3647 33.7123C48.4982 39.3961 48.4472 45.2531 48.3552 50.9612C48.3348 53.9397 47.1391 56.7259 46.8777 59.6788C46.8834 60.4247 46.2021 60.8022 46.1874 61.493C44.3276 67.3556 41.6378 73.6939 36.1138 76.9254C33.6925 78.4829 29.0155 78.6965 28.307 75.1883C27.0821 72.6865 31.1336 65.8949 29.4823 65.9855C27.7012 66.6273 25.8998 67.2994 23.9704 67.1582C19.4837 68.1642 17.3808 64.4884 16.2186 65.1739C13.4748 68.1381 10.1255 70.4328 7.40504 73.414C5.56541 75.2765 3.8457 77.7246 1.02351 75.8886C-2.00659 72.9506 4.78588 56.9438 6.2137 52.8764C9.94164 44.3119 13.9687 35.6548 19.6475 28.2957C25.4476 22.0025 36.3183 13.8021 44.3308 20.8619C46.7283 24.5831 48.4599 29.2224 48.3647 33.7123Z" fill="currentColor" />
<path fill-rule="evenodd" clip-rule="evenodd" d="M14.4679 3.20851C10.7109 4.9494 7.0896 8.28464 7.75148 12.6737C7.92724 13.7148 8.44616 14.5171 9.54266 14.7886C10.5034 14.8797 11.791 15.6801 12.5415 14.7605C12.9235 14.1619 14.1144 13.6716 14.49 14.5218C15.2182 16.2853 13.3743 16.0948 13.1822 17.1453C13.021 20.1706 15.7833 22.6334 18.7342 21.3738C21.3922 20.3831 24.1938 19.0522 25.6599 16.506C25.9751 15.8898 26.6848 14.6316 25.8337 14.1885C24.8135 13.7576 23.7266 13.2643 23.478 12.0784C23.1592 11.1845 24.19 10.3702 24.9606 10.9C26.0446 11.3398 26.6105 13.3553 27.9048 12.9103C30.4217 11.9952 30.6223 8.5749 30.0414 6.35495C29.8238 5.49309 28.9819 5.25182 28.2073 5.09779C27.0599 4.70759 26.9812 6.82836 25.6959 6.16974C24.5614 5.93695 22.8162 3.8315 24.735 3.39025C24.9438 3.34592 25.2686 3.48779 25.3116 3.16658C23.8602 0.687442 20.528 1.2106 18.3796 2.45571C16.8549 2.91141 15.1363 3.74883 14.4931 5.28517C13.504 6.68171 14.2878 3.78327 14.4679 3.20851ZM6.04013 11.5531C6.28639 5.67787 12.0452 2.17056 17.3015 1.41949C19.7089 0.0943271 22.9872 -0.878882 25.2561 1.2219C25.8479 1.74571 26.4165 2.28353 26.8184 2.97637C29.3125 4.98438 31.1582 3.01515 31.6323 8.22566C31.8732 10.7034 30.7624 13.7612 28.0456 14.262C27.6245 14.3428 27.4417 14.5492 27.3795 14.9538C26.9858 20.3316 15.6911 26.8048 12.8902 20.2531C11.6731 18.8815 12.2694 16.4475 11.2043 16.6478C8.45268 16.533 5.69795 14.5303 6.04013 11.5531Z" fill="currentColor" />
<path fill-rule="evenodd" clip-rule="evenodd" d="M63.2228 42.5759C62.2188 42.8781 61.6213 42.7023 61.6388 43.965C61.0958 44.3796 61.1051 43.2142 60.5814 43.5306C58.7814 44.5588 57.3462 45.9308 56.6548 47.9338C56.0041 50.4791 54.6718 54.3622 57.2369 56.2012C58.787 57.4618 63.111 58.3338 63.4715 55.6167C63.0954 54.5226 64.7439 54.8839 64.9397 55.5283C65.2023 56.2783 65.9152 56.3089 66.6028 56.3123C70.0621 56.4133 72.8439 52.5405 72.1498 49.2629C71.99 48.2366 68.0572 50.3628 66.9503 47.3615C66.6982 45.6452 69.2548 46.2843 70.2775 46.4662C71.4645 46.817 71.6636 46.6314 71.5161 45.3906C70.8779 40.8473 67.9609 38.7074 63.5968 40.7151C63.1566 40.8844 61.6297 41.8532 62.5505 42.2176C62.811 42.2651 63.1244 42.1904 63.2228 42.5759ZM54.4838 52.7965C54.6466 49.8288 55.1502 46.5116 57.5482 44.4909C58.4638 43.346 60.3011 43.1652 60.9576 41.9142C62.3001 38.0034 69.3633 37.5357 71.4105 41.0287C71.9408 42.0377 72.4032 43.093 72.7793 44.1683C73.4012 45.3534 72.5816 46.7143 73.1126 47.8703C73.7728 48.929 73.8348 50.0817 73.6687 51.2957C73.2224 55.2472 69.0764 58.6861 65.1474 57.1544C64.0402 56.9387 63.3461 58.4985 62.1095 58.4357C58.5541 59.2293 54.0878 56.8301 54.4838 52.7965Z" fill="currentColor" />
<path fill-rule="evenodd" clip-rule="evenodd" d="M28.7357 50.576C27.9242 50.6044 23.706 49.5617 26.1472 48.7779C27.4561 48.12 30.4233 49.9608 31.0004 48.5002C30.0216 45.1517 29.3249 41.6386 29.569 38.1438C29.6008 37.6989 29.9775 37.7244 30.3631 37.6807C31.2421 37.7169 30.9726 39.261 31.2053 39.8994C31.4056 42.652 31.6657 45.3882 32.3879 48.062C32.9191 50.2265 30.4523 50.4195 28.7357 50.576Z" fill="currentColor" />
<path fill-rule="evenodd" clip-rule="evenodd" d="M34.4213 38.1223C34.3821 37.6594 34.3386 36.1151 35.1144 36.7509C35.274 37.7284 35.9442 42.7328 37.2927 40.0522C37.8572 39.1597 37.8322 32.9328 39.3108 36.5033C39.9723 41.578 34.8061 45.1183 34.4233 38.1223C34.4226 38.1223 34.4219 38.1223 34.4213 38.1223Z" fill="currentColor" />
<path fill-rule="evenodd" clip-rule="evenodd" d="M25.8983 58.4878C24.3064 59.24 20.3984 54.3031 22.9544 54.1309C24.1868 55.2504 24.9697 57.5575 27.0745 56.4677C29.5601 55.8061 27.5251 59.131 25.8983 58.4878Z" fill="currentColor" />
</svg>
