<svg width="49" height="52" viewBox="0 0 49 52" fill="none" xmlns="http://www.w3.org/2000/svg">
<path fill-rule="evenodd" clip-rule="evenodd" d="M38.9675 46.6567C39.4737 44.9652 40.6358 43.9393 42.3513 43.6055C43.1246 43.3498 41.8012 41.5399 41.2405 42.2099C40.2466 43.0322 36.7726 45.6268 38.9675 46.6567ZM30.4003 33.0318C30.8125 32.4989 33.0307 31.5377 32.653 30.9788C31.9354 30.3599 30.7315 28.6769 29.7919 29.7582C29.6706 30.068 30.3192 30.2273 29.733 30.385C28.461 30.7465 28.448 30.7561 29.1819 31.8076C29.5435 32.2305 29.8772 32.8074 30.4003 33.0318ZM34.83 40.0663C35.6736 39.1105 36.4216 38.07 37.6244 37.5054C37.8899 37.364 38.0388 37.1299 37.8157 36.8915C37.3486 36.4929 36.9458 35.355 36.229 35.9646C34.7781 36.9042 32.5107 38.701 34.83 40.0663ZM44.8091 47.4889C44.4769 46.5933 44.086 44.8662 42.7843 45.5708C41.6614 46.222 40.1107 47.3773 40.2838 48.801C40.4804 49.2524 40.9319 48.9429 41.2218 48.7786C42.2917 48.0057 43.7447 48.0385 44.8091 47.4889ZM35.8724 34.6533C35.4382 34.0564 34.2963 32.0225 33.4736 32.7141C32.8326 33.4715 30.8331 34.0872 31.5282 35.2696C31.8865 35.7647 32.3274 37.3633 33.0769 36.6142C33.8158 35.7051 35.2872 35.5766 35.8724 34.6533ZM37.2105 43.9871C40.123 39.8692 42.2197 41.7096 39.3812 38.7003C38.5584 37.8104 37.3078 40.1839 36.5597 40.6151C36.1922 41.054 35.4168 41.5135 35.7959 42.1695C36.2214 42.792 36.3936 43.7779 37.2105 43.9871ZM30.6557 14.5492C31.0048 10.6014 28.2028 7.04522 25.4093 4.53324C21.6677 1.62666 16.0954 1.40695 11.7947 3.18842C4.14716 5.91755 -0.741838 13.6522 3.571 21.3436C5.12209 25.2399 9.02566 27.4043 12.905 28.4109C23.2157 30.7308 30.5826 25.3123 30.6557 14.5492ZM27.1903 29.9105C26.6415 29.4257 26.3724 28.1344 25.5635 28.4109C21.2164 30.8358 15.8045 31.3787 11.0741 29.8178C1.88668 27.6332 -2.23968 15.9348 2.84963 8.16921C8.36819 -1.32525 24.3431 -3.06692 30.1676 7.00194C34.5923 12.7663 32.3166 21.284 27.9169 26.4168C27.3658 26.853 27.4534 27.343 27.8654 27.8513C28.8809 30.0795 29.6287 25.2308 33.2672 28.8914C34.6341 30.164 35.8297 31.5966 36.8563 33.1571C38.8391 36.3296 41.6769 38.8423 43.4774 42.1354C43.803 43.3946 46.404 44.341 45.5028 45.0373C44.9788 45.7299 45.8765 46.5537 46.0147 47.2836C46.2695 47.9542 47.1326 47.9375 47.6231 48.3737C49.3193 50.4091 45.1596 52.1869 43.4384 51.9236C42.4705 51.7127 41.2049 52.2294 40.4373 51.4723C38.0567 48.1928 35.8401 44.7533 33.5727 41.359C32.0559 39.1011 30.19 37.1079 28.8826 34.7073C28.3212 33.262 25.5073 31.3106 27.1903 29.9105Z" fill="currentColor" />
</svg>
