<svg width="82" height="74" viewBox="0 0 82 74" fill="none" xmlns="http://www.w3.org/2000/svg">
<path fill-rule="evenodd" clip-rule="evenodd" d="M40.5422 72.4138C84.3351 69.4672 90.4835 30.9242 69.286 10.7061C62.4639 2.0708 38.3629 2.29563 27.9924 1.85372C27.1043 1.85372 24.5315 2.28059 22.5895 2.62253C14.2222 4.09584 7.43737 16.631 3.95256 24.3097C-0.70649 48.2954 11.6532 73.5829 40.5422 72.4138ZM2.35474 26.7567C-5.12773 34.8963 7.38213 12.6893 9.98863 10.7061C15.4416 5.62861 17.6307 0.82459 25.9025 0.554072C37.3022 0.466401 55.1787 1.25722 65.5538 6.02426C80.2794 16.2198 84.6095 31.9206 80.5588 49.6507C76.4992 64.0909 53.4598 73.757 39.0373 73.9773C12.9926 74.8477 -1.75361 50.0241 2.35474 26.7567Z" fill="currentColor"/>
<path fill-rule="evenodd" clip-rule="evenodd" d="M51.8036 22.7033C51.8661 23.2573 51.1858 23.8336 50.7752 23.2727C50.3953 22.7553 50.5341 22.0699 50.2579 21.5103C49.9709 20.8906 47.9759 21.6868 47.2687 21.4926C46.12 20.8393 49.2276 20.4721 49.6193 20.3288C50.2674 20.2142 48.7747 17.963 50.3844 18.7683C50.8326 19.17 50.7725 20.1606 51.5348 20.0269C52.1084 20.0911 53.2316 19.6309 53.4901 20.2917C53.6603 21.112 52.3934 20.8955 51.8772 21.0608C51.252 21.1993 51.8835 22.2277 51.8036 22.7033Z" fill="currentColor"/>
<path fill-rule="evenodd" clip-rule="evenodd" d="M58.1305 20.8932C58.1643 21.1792 57.7067 22.0832 58.2968 22.1382C58.7861 22.1081 60.7358 23.2107 59.6944 23.5199C57.4046 22.6808 57.8529 22.6052 57.1972 24.8534C57.0974 25.1415 56.8494 25.2298 56.5754 25.2424C55.6182 25.1183 56.2589 23.8117 56.327 23.2086C56.582 22.5722 56.1443 22.4936 55.6334 22.3915C55.3929 22.3743 54.8281 21.9532 55.2279 21.7866C56.061 21.6447 56.6824 22.2534 57.0494 21.2149C57.3283 20.6242 58.2938 19.392 58.1305 20.8932Z" fill="currentColor"/>
<path fill-rule="evenodd" clip-rule="evenodd" d="M52.5294 29.358C51.5672 29.0056 51.712 27.2485 50.4326 27.885C50.1584 27.9331 48.8856 28.3857 49.0968 27.8248C50.6065 26.7623 51.08 27.5487 50.2527 25.6456C50.226 25.5179 50.2077 25.3706 50.3446 25.2941C51.2868 24.8928 51.4235 26.9671 52.3872 26.4372C54.1492 25.4941 54.7327 27.0507 52.6676 27.3152C51.8681 27.744 54.2356 29.362 52.5294 29.358Z" fill="currentColor"/>
<path fill-rule="evenodd" clip-rule="evenodd" d="M20.195 49.093C20.0745 49.3416 20.4033 49.5637 20.6732 49.2146C21.6766 48.2312 22.8746 47.3624 23.8189 46.3589C23.0392 45.8774 21.8993 46.3883 21.0186 45.9888C20.3368 46.2311 20.4982 48.2049 20.195 49.093ZM19.4198 53.0607C21.2483 50.685 24.1623 49.0183 25.7184 46.538C25.5683 46.174 24.4817 46.1765 24.3245 46.5903C22.8088 48.8504 19.5086 50.0574 19.4198 53.0607ZM37.2177 31.938C37.2178 31.9447 37.2178 31.9513 37.2178 31.9579C35.8932 32.2712 33.003 31.2851 35.5499 30.3059C36.9106 29.6804 38.4768 29.3415 39.5118 28.1885C40.1845 27.6396 40.5451 26.1727 39.3214 26.126C32.4661 26.4313 26.3894 31.6342 23.8679 37.836C22.8246 40.1522 22.0504 42.5691 21.1459 44.9376C21.0775 45.1323 21.1855 45.2616 21.4055 45.2512C28.9227 44.4634 29.0979 48.2807 30.3873 43.4438C31.1957 41.7818 31.3025 38.5391 33.5597 38.3205C35.1459 38.2098 38.6295 39.9393 38.6766 37.289C38.8807 35.3844 34.7255 36.0854 35.1605 34.6472C35.5795 34.0949 36.2269 34.5605 36.7511 34.6367C39.3286 35.1956 40.6892 31.2409 37.2177 31.938ZM27.8707 55.9284C27.1762 56.9736 24.6516 58.541 26.5404 56.1464C27.152 55.3834 28.293 54.9693 28.3162 53.8644C28.3209 53.1646 29.127 50.4536 27.82 52.0746C27.0579 53.3281 19.4102 61.1081 23.7024 55.5647C24.7407 54.3883 25.7817 53.2139 26.8432 52.0586C27.4018 51.2734 28.5789 50.8431 28.7097 49.8228C28.6087 49.4752 29.2262 47.8804 28.6437 48.0963C25.9163 50.8405 23.0215 53.4748 20.7575 56.627C20.5173 56.9091 20.3622 57.3364 19.8681 57.2886C19.7874 56.8294 20.1306 56.5099 20.2985 56.1324C22.1098 53.568 24.1618 51.1247 26.4952 49.0199C27.2361 48.5756 27.7835 47.9024 28.4553 47.3766C28.7268 46.8099 27.4147 46.9063 27.0694 46.684C26.7198 46.5853 26.467 46.6707 26.2805 47.0005C25.4668 48.3418 24.2982 49.4372 23.1796 50.5198C21.8013 51.6306 20.6759 53.0318 19.516 54.3254C19.1035 54.4668 19.0635 54.7885 19.0015 55.1301C18.8324 55.5087 18.9311 56.9016 18.2862 56.388C17.7943 55.6735 18.2116 54.6252 18.2081 53.804C19.5885 41.8367 25.3093 26.3276 39.2233 25.2422C40.5739 25.2755 41.3786 26.4229 41.1051 27.533C40.7527 29.1253 39.1613 29.8975 37.9522 30.7046C40.7308 30.9827 41.2379 33.3281 39.1788 35.1427C38.9722 35.2886 38.521 35.4494 38.7972 35.7361C39.9353 36.8038 39.6551 39.1245 38.0246 39.4941C36.5825 40.1294 34.0232 38.6651 33.1605 39.9956C31.7567 43.1737 30.7269 46.5989 29.9053 49.9682C29.7704 51.8784 29.3289 53.7437 29.1482 55.6465C28.9944 56.9555 28.7376 56.7851 27.8707 55.9284Z" fill="currentColor"/>
<path fill-rule="evenodd" clip-rule="evenodd" d="M48.8464 31.2611V31.2642L49.1543 31.2638C52.4244 31.2595 55.6942 31.2552 58.9563 31.0271C59.1423 31.0605 59.481 31.0392 59.8618 31.0152H59.8618H59.8619C60.7315 30.9603 61.8208 30.8917 61.8121 31.429C61.8907 31.8775 61.9891 32.3205 62.0872 32.7622C62.3265 33.8395 62.564 34.9092 62.5088 36.0321C62.5018 36.1293 62.5567 36.2483 62.6119 36.3681C62.7134 36.5882 62.8162 36.811 62.5386 36.9068C61.0005 37.4439 59.3718 37.3689 57.748 37.2941C57.0462 37.2618 56.3453 37.2295 55.6531 37.2467C52.596 37.3201 49.5761 37.0707 46.5402 36.8122C46.2918 36.7987 46.185 36.7439 46.1395 36.5187C45.7026 35.1156 45.6452 33.6762 45.5872 32.224C45.5776 31.9815 45.5679 31.7387 45.5564 31.4957C45.5462 31.1545 46.6916 31.2102 47.655 31.257H47.655H47.655C48.1759 31.2823 48.6435 31.305 48.8464 31.2611ZM52.7776 30.1486C50.3122 30.0434 47.8578 29.9387 45.5246 30.9066C45.3138 27.9244 45.264 24.9413 45.2143 21.9589C45.1701 19.313 45.126 16.6676 44.9694 14.0239C44.8007 13.3995 45.7936 13.4263 46.6504 13.4494C47.0643 13.4605 47.4464 13.4708 47.6506 13.4065C47.7647 13.4039 47.8876 13.3778 48.0094 13.3519C48.1344 13.3254 48.2581 13.2991 48.3699 13.2986C48.5476 13.4174 48.7415 13.4086 48.9345 13.3998C48.9983 13.3969 49.062 13.394 49.125 13.3957C50.4966 13.4849 51.8719 13.4599 53.2464 13.4348C55.1529 13.4001 57.0577 13.3654 58.9487 13.6356C60.1377 13.6825 60.2098 14.229 60.1585 15.2002C60.2328 17.8582 60.5713 20.4982 60.9099 23.139V23.139V23.139C61.1856 25.2889 61.4613 27.4393 61.5947 29.6004C61.5652 30.0445 60.9759 30.0028 60.432 29.9644C60.1558 29.9449 59.8912 29.9262 59.7176 29.9724C58.6694 30.0392 57.6361 30.085 56.5946 30.1313C56.0092 30.1573 55.4212 30.1834 54.8264 30.2134C54.1443 30.207 53.4606 30.1778 52.7778 30.1486H52.7778L52.7776 30.1486ZM55.1262 38.3599C59.0827 38.4681 65.5191 38.644 63.848 36.408C63.8402 36.5397 63.7513 36.5469 63.6352 36.5541C64.0725 35.7504 63.9029 34.5542 63.7602 33.5467C63.7494 33.4708 63.7388 33.3959 63.7286 33.3223C63.0645 29.4307 62.714 25.4853 62.3649 21.5569L62.362 21.5242C62.3 20.8383 62.2293 20.1528 62.1586 19.4672C62.0558 18.4705 61.9529 17.4736 61.8768 16.4751C61.8112 16.1316 61.819 15.7054 61.8272 15.2616V15.2616C61.8491 14.0729 61.8733 12.7588 60.4934 12.5749C57.0694 11.9893 53.5808 12.0856 50.1108 12.1813L50.006 12.1842C49.6004 12.2389 49.0813 12.2503 48.5185 12.2626C46.5962 12.3047 44.1638 12.3579 43.9999 14.1893C43.8293 21.4553 43.6844 28.901 45.07 36.0564C45.1081 36.1606 45.1417 36.33 45.1803 36.5246C45.3056 37.1561 45.4837 38.0538 46.0403 37.86C46.6266 37.6313 47.2138 37.7648 47.7997 37.8979L47.7997 37.8979C48.0205 37.9481 48.241 37.9982 48.4612 38.0289C49.7676 38.228 51.0831 38.3488 52.407 38.3629C52.7976 38.2963 53.8285 38.3244 55.1262 38.3599ZM53.8447 33.2151C52.6436 33.538 53.9048 35.3096 54.8107 34.6768C55.7101 34.0741 54.5167 33.3122 53.8447 33.2151ZM52.5636 34.9214C55.5471 37.6481 58.4689 32.4024 53.7419 32.2748C53.6262 32.3058 53.482 32.3158 53.3329 32.3261H53.3328C53.0084 32.3486 52.6603 32.3727 52.5304 32.6177C52.495 32.7651 52.4488 32.9151 52.4023 33.0663L52.4023 33.0663L52.4023 33.0664C52.2072 33.7009 52.0058 34.3558 52.5636 34.9214ZM54.0451 14.4767C54.1998 14.5015 54.3979 14.4881 54.6037 14.4742C55.0577 14.4434 55.5492 14.4101 55.6946 14.7792C55.6672 15.1321 55.55 15.2668 55.1993 15.2777C54.4723 15.3004 53.744 15.3043 53.0167 15.2939C52.5482 15.3394 51.828 14.9134 52.4368 14.5609C52.8064 14.4615 53.191 14.4691 53.5746 14.4768C53.7319 14.4799 53.8892 14.483 54.0451 14.4788V14.4767ZM50.9384 14.9594C50.954 15.7007 50.0418 15.9836 49.9204 15.1614C49.8364 14.5802 50.8114 14.4386 50.9384 14.9594Z" fill="currentColor"/>
</svg>
